<?xml version="1.0" encoding="UTF-8" standalone="no"?>
<!-- Created with Inkscape (http://www.inkscape.org/) -->

<svg
   version="1.1"
   id="svg21816"
   width="605.15692"
   height="584.02637"
   viewBox="0 0 605.15692 584.02637"
   sodipodi:docname="heroComposition.svg"
   inkscape:version="1.2.2 (732a01da63, 2022-12-09, custom)"
   xmlns:inkscape="http://www.inkscape.org/namespaces/inkscape"
   xmlns:sodipodi="http://sodipodi.sourceforge.net/DTD/sodipodi-0.dtd"
   xmlns="http://www.w3.org/2000/svg"
   xmlns:svg="http://www.w3.org/2000/svg">
  <defs
     id="defs21820">
    <filter
       style="color-interpolation-filters:sRGB"
       inkscape:label="Blur"
       id="filter28903"
       x="-0.069967871"
       y="-0.12114482"
       width="1.1399357"
       height="1.2422896">
      <feGaussianBlur
         stdDeviation="30 30"
         result="blur"
         id="feGaussianBlur28901" />
    </filter>
    <filter
       style="color-interpolation-filters:sRGB"
       inkscape:label="Blur"
       id="filter28907"
       x="-0.027184917"
       y="-0.046337414"
       width="1.0543698"
       height="1.0926748">
      <feGaussianBlur
         stdDeviation="30 30"
         result="blur"
         id="feGaussianBlur28905" />
    </filter>
    <filter
       style="color-interpolation-filters:sRGB"
       inkscape:label="Blur"
       id="filter28911"
       x="-0.061645925"
       y="-0.12099193"
       width="1.1232918"
       height="1.2419839">
      <feGaussianBlur
         stdDeviation="30 30"
         result="blur"
         id="feGaussianBlur28909" />
    </filter>
    <filter
       style="color-interpolation-filters:sRGB"
       inkscape:label="Blur"
       id="filter28915"
       x="-0.15885843"
       y="-0.27515573"
       width="1.3177169"
       height="1.5503115">
      <feGaussianBlur
         stdDeviation="30 30"
         result="blur"
         id="feGaussianBlur28913" />
    </filter>
  </defs>
  <sodipodi:namedview
     id="namedview21818"
     pagecolor="#ffffff"
     bordercolor="#000000"
     borderopacity="0.25"
     inkscape:showpageshadow="2"
     inkscape:pageopacity="0.0"
     inkscape:pagecheckerboard="0"
     inkscape:deskcolor="#d1d1d1"
     showgrid="false"
     inkscape:zoom="0.55625733"
     inkscape:cx="123.14444"
     inkscape:cy="190.55929"
     inkscape:window-width="1920"
     inkscape:window-height="1043"
     inkscape:window-x="1920"
     inkscape:window-y="0"
     inkscape:window-maximized="1"
     inkscape:current-layer="g21826">
    <inkscape:page
       x="0"
       y="0"
       id="page21822"
       width="605.15692"
       height="584.02637" />
  </sodipodi:namedview>
  <g
     id="g21824"
     inkscape:groupmode="layer"
     inkscape:label="Page 1"
     transform="matrix(1.3333333,0,0,-1.3333333,-185.09824,591.26445)">
    <g
       id="g21826"
       transform="scale(0.1)">
      <g
         id="g39190"
         transform="matrix(1.1768984,0,0,1.1768984,-682.01572,-402.96283)">
        <path
           d="m 4083.76,749 c -28.51,0 -57.02,7.371 -82.57,22.121 L 2708.21,1517.63 c -29.06,16.76 -29.06,58.71 0,75.48 l 1229.41,709.71 1375.52,-794.16 c 29.07,-16.77 29.07,-58.72 0,-75.49 L 4166.3,771.109 C 4140.76,756.371 4112.25,749 4083.76,749"
           style="fill:#1a1a1a;fill-opacity:0.395492;fill-rule:nonzero;stroke:none;filter:url(#filter28907)"
           id="path21828" />
        <path
           d="m 3963.89,2700.05 c 0.07,82.11 -57.75,115.55 -128.89,74.57 L 2625.73,2077.88 c -19.56,-11.26 -35.44,-38.71 -35.46,-61.28 -0.02,-22.57 15.83,-31.74 35.38,-20.47 l 1209.28,696.73 c 32.08,18.5 58.16,3.41 58.13,-33.62 L 3892.93,2524 c 23.47,1.46 47.02,1.49 70.8,1.07 l 0.16,174.98"
           style="fill:#ee1696;fill-opacity:1;fill-rule:nonzero;stroke:none"
           id="path22016" />
        <path
           d="m 2625.21,1752.96 1209.27,440.65 c 71.15,40.99 129.08,141.14 129.15,223.24 l 0.1,108.22 c -23.78,0.42 -47.33,0.39 -70.8,-1.07 l -0.13,-147.97 c -0.04,-37.03 -26.16,-82.18 -58.25,-100.67 L 2625.28,1834.71 c -19.56,-11.27 -35.43,-38.71 -35.45,-61.28 -0.03,-22.57 15.82,-31.74 35.38,-20.47"
           style="fill:#d1078d;fill-opacity:1;fill-rule:nonzero;stroke:none"
           id="path22018" />
        <path
           d="m 2598.98,1751.33 1471.03,-851.189 1245.45,742.739 98.81,147.47 -10.26,-52.25 -26.55,136.79 -2311.87,-88.17 -407.32,26.23 -59.29,-61.62"
           style="fill:#d1078d;fill-opacity:1;fill-rule:nonzero;stroke:none"
           id="path22020" />
        <path
           d="m 2647.77,2008.2 -0.4,-181.07 1421.74,-822.54 38.41,172.58 -1459.75,831.03"
           style="fill:#e352b1;fill-opacity:1;fill-rule:nonzero;stroke:none"
           id="path22022" />
        <path
           d="m 5395.95,1933.11 -1468.69,849.71 -1324.18,-770.06 -2.74,-18.9 1470.86,-850.96 1324.75,790.21"
           style="fill:#ee1696;fill-opacity:1;fill-rule:nonzero;stroke:none"
           id="path22024" />
        <path
           d="m 4927.72,1496.77 345.33,204.83 c 29.09,20.45 51.9,61.77 51.93,96.31 l 0.25,27.13 c 0.02,21.93 -9.17,36.08 -23.29,40.2 l -679.77,-378.17 -553.57,-299.39 0.51,-183.09 858.61,492.18"
           style="fill:#ffffff;fill-opacity:1;fill-rule:nonzero;stroke:none"
           id="path22026" />
        <path
           d="m 4118.24,1170.96 -1459.37,844.31 -30.93,17.9 -28.26,16.35 c -5.78,-10.6 -9.4,-22.27 -9.41,-32.92 -0.01,-11.09 3.85,-18.9 10.06,-22.68 l 0.01,-0.06 0.24,-0.14 0.1,-0.06 1470.51,-850.76 47.05,28.06"
           style="fill:#d1078d;fill-opacity:1;fill-rule:nonzero;stroke:none"
           id="path22028" />
        <path
           d="m 4051.67,910.738 18.34,-10.597 3.39,5.839 -11.43,8.989 -10.3,-4.231"
           style="fill:#ffffff;fill-opacity:1;fill-rule:nonzero;stroke:none"
           id="path22030" />
        <path
           d="m 4052.15,1153.95 18.8,-10.87 -4.72,10.26 z"
           style="fill:#ffffff;fill-opacity:1;fill-rule:nonzero;stroke:none"
           id="path22032" />
        <path
           d="m 4096.57,1226.93 1209.27,696.73 c 71.14,41 128.96,7.54 128.89,-74.56 l -0.26,-27.13 c -0.07,-82.1 -58.01,-182.24 -129.15,-223.23 L 4096.04,902.012 c -19.55,-11.274 -35.4,-2.114 -35.38,20.468 0.02,22.571 15.9,50.008 35.46,61.282 l 1209.27,696.728 c 32.09,18.48 58.21,63.64 58.25,100.67 l 0.26,27.13 c 0.03,37.03 -26.04,52.11 -58.13,33.62 L 4096.49,1145.18 c -19.55,-11.26 -35.4,-2.09 -35.38,20.47 0.02,22.57 15.9,50.01 35.46,61.28"
           style="fill:#ee1696;fill-opacity:1;fill-rule:nonzero;stroke:none"
           id="path22034" />
        <path
           d="m 4060.67,922.469 c 0.02,22.582 15.89,50.019 35.45,61.293 l 1209.27,696.728 c 32.09,18.48 58.21,63.64 58.25,100.67 l 0.26,27.13 c 0.02,24.25 -11.19,38.99 -27.91,41.16 5.39,-7.08 8.54,-17.17 8.53,-29.95 l -0.25,-27.13 c -0.04,-37.03 -26.16,-82.19 -58.25,-100.67 L 4076.75,994.969 c -19.56,-11.27 -35.44,-38.707 -35.46,-61.289 -0.01,-17.102 9.1,-26.45 22.02,-25.11 -1.69,3.801 -2.65,8.442 -2.64,13.899"
           style="fill:#ffffff;fill-opacity:1;fill-rule:nonzero;stroke:none"
           id="path22036" />
        <path
           d="m 4061.11,1165.65 c 0.02,22.57 15.9,50.01 35.46,61.28 l 1209.27,696.73 c 30.64,17.66 58.78,21.43 80.91,13.53 -23.64,20.16 -59.78,21.02 -100.29,-2.32 L 4077.2,1238.14 c -19.56,-11.27 -35.44,-38.71 -35.46,-61.28 -0.01,-17.1 9.1,-26.45 22.02,-25.1 -1.69,3.8 -2.65,8.42 -2.65,13.89"
           style="fill:#ffffff;fill-opacity:1;fill-rule:nonzero;stroke:none"
           id="path22038" />
        <path
           d="M 5445.29,3181.42 4140.57,3934.7 c -15.15,8.75 -30.55,10.09 -44.21,5.42 l 0.08,0.13 -2.37,-0.89 -0.57,-0.22 -47.16,-18.05 42.32,-20.71 -0.61,-2.31 -212.51,-967.37 c -10.64,-48.41 10.66,-104.93 47.57,-126.24 l 1273.34,-735.16 -4.55,-53.96 51.54,19.97 c 17.31,8.1 31.18,26.41 36.9,52.49 l 212.52,967.38 c 10.64,48.4 -10.66,104.93 -47.57,126.24"
           style="fill:#263c7a;fill-opacity:1;fill-rule:nonzero;stroke:none"
           id="path22042" />
        <path
           d="M 5445.29,3181.42 4140.57,3934.7 c -15.15,8.75 -30.55,10.09 -44.21,5.42 l 0.08,0.13 -2.37,-0.89 -0.57,-0.22 -47.16,-18.05 42.32,-20.71 -0.61,-2.31 -140.06,-637.55 638.38,-497.37 900.13,366.27 c -8.65,22.43 -23.02,41.5 -41.21,52"
           style="fill:#4067b1;fill-opacity:1;fill-rule:nonzero;stroke:none"
           id="path22044" />
        <path
           d="m 5396.09,3032.71 99.33,42.29 c 1.82,38.47 -14.1,78.2 -40.24,99.45 l -157.22,-66.13 98.13,-75.61"
           style="fill:#2e4b8d;fill-opacity:1;fill-rule:nonzero;stroke:none"
           id="path22046" />
        <path
           d="m 5146.58,2020.47 -1304.72,753.28 c -36.91,21.31 -58.21,77.83 -47.57,126.24 l 212.52,967.37 c 10.63,48.41 49.17,70.39 86.08,49.07 l 1304.72,-753.28 c 36.91,-21.3 58.21,-77.83 47.58,-126.24 l -212.52,-967.37 c -10.64,-48.41 -49.18,-70.38 -86.09,-49.07"
           style="fill:#d9effb;fill-opacity:1;fill-rule:nonzero;stroke:none"
           id="path22048" />
        <path
           d="m 5410.14,3167.74 -1304.72,753.28 c -17.88,10.32 -36.08,10.31 -51.38,2.23 12.28,2.68 25.65,0.81 38.85,-6.82 l 1304.73,-753.28 c 36.9,-21.3 58.2,-77.83 47.57,-126.24 l -212.52,-967.37 c -5.48,-24.95 -18.44,-42.7 -34.72,-51.3 22.03,4.82 40.41,24.79 47.25,55.89 l 212.51,967.36 c 10.64,48.41 -10.66,104.94 -47.57,126.25"
           style="fill:#ffffff;fill-opacity:1;fill-rule:nonzero;stroke:none"
           id="path22050" />
        <path
           d="m 5118.3,2092.42 -1227.07,708.11 c -33.77,19.49 -53.26,71.22 -43.53,115.51 l 194.47,885.23 c 9.73,44.3 45,64.4 78.78,44.9 l 1227.07,-708.09 c 33.77,-19.51 53.26,-71.23 43.52,-115.52 l -194.47,-885.23 c -9.73,-44.3 -45,-64.41 -78.77,-44.91"
           style="fill:#ffffff;fill-opacity:1;fill-rule:nonzero;stroke:none"
           id="path22052" />
        <path
           d="m 5118.3,2092.42 -1227.07,708.11 c -33.77,19.49 -53.26,71.22 -43.53,115.51 l 194.47,885.23 c 9.73,44.3 45,64.4 78.78,44.9 l 1227.07,-708.09 c 33.77,-19.51 53.26,-71.23 43.52,-115.52 l -194.47,-885.23 c -9.73,-44.3 -45,-64.41 -78.77,-44.91"
           style="fill:#263c7a;fill-opacity:1;fill-rule:nonzero;stroke:none"
           id="path22054" />
        <path
           d="m 5128.99,2096.78 -1227.07,708.09 c -33.77,19.5 -53.26,71.22 -43.52,115.52 l 194.46,885.24 c 4.93,22.42 16.42,38.56 30.92,46.58 -19.44,-5 -35.53,-23.24 -41.61,-50.94 L 3847.7,2916.04 c -9.73,-44.29 9.76,-96.02 43.53,-115.51 L 5118.3,2092.42 c 16.68,-9.63 33.7,-9.53 47.85,-1.69 -11.65,-3.01 -24.51,-1.26 -37.16,6.05"
           style="fill:#5f92d3;fill-opacity:1;fill-rule:nonzero;stroke:none"
           id="path22056" />
        <path
           d="m 5164.59,1987.67 -178.34,23.54 -1151.27,664.68 c -36.9,21.32 -101.38,18.64 -143.99,-5.97 l -815.78,-470.82 -107.85,14.25 v -61.19 l 0.11,-0.02 c -0.71,-14.14 7.34,-27.75 24.76,-37.79 l 1304.72,-753.29 c 36.91,-21.3 101.38,-18.64 144,5.97 l 888.42,512.75 c 23.97,13.85 35.92,31.68 35.22,48.43 v 59.46"
           style="fill:#263c7a;fill-opacity:1;fill-rule:nonzero;stroke:none"
           id="path22058" />
        <path
           d="m 4299.57,2407.67 -81.79,47.21 h -899.25 l -443.32,-255.78 -107.85,14.25 v -61.19 l 0.11,-0.02 c -0.71,-14.14 7.34,-27.75 24.76,-37.79 l 1304.72,-753.29 c 19.51,-11.26 46.71,-15.76 74.32,-13.92 l 128.3,1060.53"
           style="fill:#4067b1;fill-opacity:1;fill-rule:nonzero;stroke:none"
           id="path22060" />
        <path
           d="m 2815.22,2207.02 -47.86,6.33 v -61.19 l 0.11,-0.02 c -0.71,-14.14 7.34,-27.75 24.76,-37.79 l 22.99,-13.28 v 105.95"
           style="fill:#5f92d3;fill-opacity:1;fill-rule:nonzero;stroke:none"
           id="path22062" />
        <path
           d="m 4110.09,1354.96 c 34.99,-13.27 85.01,-10.38 122.35,7.6 v 136.48 h -122.35 v -144.08"
           style="fill:#2e4b8d;fill-opacity:1;fill-rule:nonzero;stroke:none"
           id="path22064" />
        <path
           d="m 4096.95,1422.18 -1304.72,753.28 c -36.91,21.31 -32.28,58.53 10.34,83.14 l 888.42,512.76 c 42.61,24.61 107.09,27.27 143.99,5.96 l 1304.73,-753.28 c 36.9,-21.31 32.27,-58.52 -10.34,-83.13 l -888.42,-512.76 c -42.62,-24.61 -107.09,-27.28 -144,-5.97"
           style="fill:#d9effb;fill-opacity:1;fill-rule:nonzero;stroke:none"
           id="path22066" />
        <path
           d="M 5129.37,1963.26 4240.95,1450.5 c -42.62,-24.6 -107.09,-27.28 -144,-5.97 l -1304.72,753.28 c -12.1,6.98 -19.65,15.7 -22.95,25.1 -5.77,-17.46 1.59,-35.12 22.95,-47.45 l 1304.72,-753.28 c 36.91,-21.31 101.38,-18.64 144,5.96 l 888.42,512.77 c 28.65,16.53 40.03,38.76 33.28,58.03 -4.2,-12.71 -15.33,-25.32 -33.28,-35.68"
           style="fill:#ffffff;fill-opacity:1;fill-rule:nonzero;stroke:none"
           id="path22068" />
        <path
           d="m 3347.15,2424.84 -59.03,34.09 c -4.75,2.73 -4.16,7.51 1.32,10.67 l 69.68,40.23 c 5.47,3.16 13.75,3.5 18.5,0.77 l 59.03,-34.09 c 4.74,-2.73 4.14,-7.52 -1.33,-10.67 l -69.69,-40.24 c -5.46,-3.15 -13.75,-3.49 -18.48,-0.76"
           style="fill:#5f92d3;fill-opacity:1;fill-rule:nonzero;stroke:none"
           id="path22070" />
        <path
           d="m 3438.31,2372.21 -59.03,34.08 c -4.74,2.73 -4.14,7.52 1.33,10.67 l 69.67,40.24 c 5.48,3.16 13.75,3.5 18.5,0.77 l 59.03,-34.09 c 4.74,-2.74 4.14,-7.51 -1.33,-10.68 l -69.67,-40.22 c -5.48,-3.17 -13.76,-3.51 -18.5,-0.77"
           style="fill:#5f92d3;fill-opacity:1;fill-rule:nonzero;stroke:none"
           id="path22072" />
        <path
           d="m 3529.47,2319.57 -59.03,34.08 c -4.74,2.75 -4.14,7.52 1.33,10.69 l 69.69,40.22 c 5.46,3.16 13.75,3.51 18.48,0.77 l 59.03,-34.08 c 4.75,-2.74 4.16,-7.52 -1.32,-10.68 l -69.68,-40.23 c -5.47,-3.16 -13.75,-3.5 -18.5,-0.77"
           style="fill:#5f92d3;fill-opacity:1;fill-rule:nonzero;stroke:none"
           id="path22074" />
        <path
           d="m 3655.57,2363.04 -59.04,34.09 c -4.74,2.73 -4.15,7.51 1.33,10.67 l 58.49,33.77 c 5.48,3.16 13.75,3.51 18.49,0.76 l 59.04,-34.08 c 4.73,-2.73 4.14,-7.51 -1.33,-10.67 l -58.5,-33.77 c -5.47,-3.17 -13.75,-3.51 -18.48,-0.77"
           style="fill:#5f92d3;fill-opacity:1;fill-rule:nonzero;stroke:none"
           id="path22076" />
        <path
           d="m 3746.73,2310.41 -59.03,34.08 c -4.74,2.74 -4.15,7.51 1.32,10.68 l 58.5,33.76 c 5.47,3.17 13.75,3.51 18.49,0.78 l 59.03,-34.09 c 4.75,-2.74 4.15,-7.52 -1.33,-10.68 l -58.49,-33.77 c -5.47,-3.15 -13.76,-3.5 -18.49,-0.76"
           style="fill:#5f92d3;fill-opacity:1;fill-rule:nonzero;stroke:none"
           id="path22078" />
        <path
           d="m 3837.89,2257.77 -59.03,34.08 c -4.74,2.74 -4.14,7.52 1.33,10.68 l 58.49,33.77 c 5.47,3.16 13.75,3.5 18.5,0.77 l 59.03,-34.08 c 4.74,-2.74 4.14,-7.52 -1.33,-10.68 l -58.49,-33.78 c -5.47,-3.15 -13.75,-3.49 -18.5,-0.76"
           style="fill:#5f92d3;fill-opacity:1;fill-rule:nonzero;stroke:none"
           id="path22080" />
        <path
           d="m 3929.06,2205.14 -59.03,34.08 c -4.75,2.73 -4.15,7.52 1.33,10.68 l 58.48,33.77 c 5.48,3.16 13.75,3.5 18.5,0.76 l 59.03,-34.08 c 4.74,-2.73 4.14,-7.52 -1.33,-10.67 l -58.49,-33.77 c -5.47,-3.17 -13.75,-3.51 -18.49,-0.77"
           style="fill:#5f92d3;fill-opacity:1;fill-rule:nonzero;stroke:none"
           id="path22082" />
        <path
           d="m 4020.22,2152.5 -59.03,34.09 c -4.73,2.74 -4.14,7.51 1.33,10.68 l 58.5,33.76 c 5.46,3.16 13.75,3.51 18.48,0.77 l 59.04,-34.09 c 4.74,-2.73 4.15,-7.51 -1.33,-10.67 l -58.49,-33.77 c -5.48,-3.16 -13.76,-3.5 -18.5,-0.77"
           style="fill:#5f92d3;fill-opacity:1;fill-rule:nonzero;stroke:none"
           id="path22084" />
        <path
           d="m 4111.39,2099.87 -59.04,34.08 c -4.73,2.74 -4.14,7.51 1.33,10.68 l 58.5,33.77 c 5.47,3.16 13.75,3.5 18.49,0.77 l 59.04,-34.08 c 4.73,-2.75 4.14,-7.52 -1.33,-10.69 l -58.5,-33.77 c -5.47,-3.15 -13.75,-3.5 -18.49,-0.76"
           style="fill:#5f92d3;fill-opacity:1;fill-rule:nonzero;stroke:none"
           id="path22086" />
        <path
           d="m 4202.56,2047.24 -59.03,34.08 c -4.75,2.73 -4.15,7.52 1.32,10.67 l 58.49,33.77 c 5.48,3.17 13.75,3.51 18.5,0.77 l 59.03,-34.08 c 4.74,-2.73 4.14,-7.52 -1.33,-10.68 l -58.5,-33.77 c -5.46,-3.16 -13.75,-3.5 -18.48,-0.76"
           style="fill:#5f92d3;fill-opacity:1;fill-rule:nonzero;stroke:none"
           id="path22088" />
        <path
           d="m 4293.72,1994.6 -59.03,34.08 c -4.74,2.74 -4.14,7.52 1.33,10.68 l 58.49,33.77 c 5.47,3.16 13.75,3.5 18.49,0.77 l 59.03,-34.09 c 4.75,-2.73 4.15,-7.52 -1.33,-10.67 l -58.48,-33.77 c -5.48,-3.16 -13.76,-3.51 -18.5,-0.77"
           style="fill:#5f92d3;fill-opacity:1;fill-rule:nonzero;stroke:none"
           id="path22090" />
        <path
           d="m 4384.88,1941.96 -59.03,34.08 c -4.74,2.75 -4.14,7.52 1.33,10.69 l 58.49,33.77 c 5.47,3.15 13.75,3.5 18.5,0.76 l 59.03,-34.08 c 4.74,-2.74 4.14,-7.51 -1.32,-10.68 l -58.5,-33.77 c -5.47,-3.16 -13.75,-3.5 -18.5,-0.77"
           style="fill:#5f92d3;fill-opacity:1;fill-rule:nonzero;stroke:none"
           id="path22092" />
        <path
           d="m 4476.05,1889.34 -59.03,34.08 c -4.74,2.73 -4.15,7.51 1.33,10.67 l 58.49,33.77 c 5.47,3.16 13.75,3.51 18.49,0.77 l 59.04,-34.09 c 4.73,-2.73 4.14,-7.51 -1.33,-10.67 l -58.5,-33.77 c -5.47,-3.16 -13.75,-3.51 -18.49,-0.76"
           style="fill:#5f92d3;fill-opacity:1;fill-rule:nonzero;stroke:none"
           id="path22094" />
        <path
           d="m 3789.89,2387.96 -59.03,34.08 c -4.75,2.73 -4.15,7.52 1.33,10.68 l 58.48,33.77 c 5.48,3.16 13.76,3.5 18.5,0.77 l 59.03,-34.09 c 4.74,-2.73 4.14,-7.52 -1.32,-10.67 l -58.5,-33.77 c -5.47,-3.16 -13.75,-3.51 -18.49,-0.77"
           style="fill:#5f92d3;fill-opacity:1;fill-rule:nonzero;stroke:none"
           id="path22096" />
        <path
           d="m 3697.36,2441.38 -59.03,34.08 c -4.74,2.74 -4.14,7.52 1.33,10.68 l 58.49,33.77 c 5.47,3.16 13.75,3.51 18.49,0.76 l 59.03,-34.08 c 4.75,-2.73 4.15,-7.51 -1.32,-10.67 l -58.49,-33.77 c -5.48,-3.17 -13.76,-3.51 -18.5,-0.77"
           style="fill:#5f92d3;fill-opacity:1;fill-rule:nonzero;stroke:none"
           id="path22098" />
        <path
           d="m 3604.69,2494.88 -127.15,73.41 c -4.74,2.73 -4.14,7.52 1.33,10.68 l 58.49,33.77 c 5.47,3.16 13.75,3.5 18.5,0.77 L 3683,2540.1 c 4.73,-2.74 4.15,-7.51 -1.33,-10.68 l -58.49,-33.77 c -5.47,-3.16 -13.76,-3.5 -18.49,-0.77"
           style="fill:#5f92d3;fill-opacity:1;fill-rule:nonzero;stroke:none"
           id="path22100" />
        <path
           d="m 3669.46,2559.96 -103.17,59.57 c -4.75,2.74 -4.15,7.52 1.33,10.67 l 58.48,33.77 c 5.48,3.17 13.76,3.51 18.5,0.78 l 103.18,-59.57 c 4.74,-2.75 4.14,-7.52 -1.32,-10.69 l -58.5,-33.77 c -5.47,-3.15 -13.75,-3.49 -18.5,-0.76"
           style="fill:#5f92d3;fill-opacity:1;fill-rule:nonzero;stroke:none"
           id="path22102" />
        <path
           d="m 3881.05,2335.32 -59.03,34.08 c -4.73,2.75 -4.14,7.52 1.33,10.69 l 58.5,33.77 c 5.46,3.15 13.75,3.5 18.48,0.76 l 59.04,-34.08 c 4.74,-2.74 4.15,-7.51 -1.33,-10.68 l -58.49,-33.77 c -5.48,-3.16 -13.76,-3.5 -18.5,-0.77"
           style="fill:#5f92d3;fill-opacity:1;fill-rule:nonzero;stroke:none"
           id="path22104" />
        <path
           d="m 3972.22,2282.69 -59.04,34.09 c -4.73,2.73 -4.14,7.51 1.33,10.67 l 58.5,33.77 c 5.47,3.16 13.75,3.51 18.49,0.77 l 59.04,-34.08 c 4.73,-2.74 4.14,-7.52 -1.33,-10.68 l -58.5,-33.77 c -5.47,-3.16 -13.75,-3.51 -18.49,-0.77"
           style="fill:#5f92d3;fill-opacity:1;fill-rule:nonzero;stroke:none"
           id="path22106" />
        <path
           d="m 4063.39,2230.06 -59.03,34.08 c -4.75,2.73 -4.15,7.52 1.32,10.67 l 58.49,33.77 c 5.48,3.17 13.76,3.51 18.5,0.77 l 59.03,-34.08 c 4.74,-2.73 4.14,-7.52 -1.33,-10.68 l -58.49,-33.77 c -5.47,-3.15 -13.75,-3.5 -18.49,-0.76"
           style="fill:#5f92d3;fill-opacity:1;fill-rule:nonzero;stroke:none"
           id="path22108" />
        <path
           d="m 4154.55,2177.42 -59.03,34.08 c -4.74,2.74 -4.14,7.52 1.33,10.68 l 58.49,33.78 c 5.47,3.15 13.75,3.49 18.49,0.76 l 59.03,-34.08 c 4.75,-2.74 4.15,-7.52 -1.33,-10.68 l -58.48,-33.77 c -5.48,-3.16 -13.76,-3.5 -18.5,-0.77"
           style="fill:#5f92d3;fill-opacity:1;fill-rule:nonzero;stroke:none"
           id="path22110" />
        <path
           d="m 4245.71,2124.78 -59.03,34.09 c -4.74,2.74 -4.14,7.52 1.33,10.68 l 58.49,33.77 c 5.47,3.15 13.75,3.51 18.5,0.76 l 59.03,-34.08 c 4.74,-2.73 4.14,-7.51 -1.32,-10.67 l -58.5,-33.77 c -5.47,-3.17 -13.75,-3.51 -18.5,-0.78"
           style="fill:#5f92d3;fill-opacity:1;fill-rule:nonzero;stroke:none"
           id="path22112" />
        <path
           d="m 4336.88,2072.16 -59.03,34.08 c -4.74,2.73 -4.15,7.51 1.33,10.67 l 58.49,33.77 c 5.47,3.17 13.76,3.51 18.49,0.77 l 59.04,-34.09 c 4.73,-2.73 4.14,-7.51 -1.33,-10.67 l -58.5,-33.77 c -5.47,-3.15 -13.75,-3.51 -18.49,-0.76"
           style="fill:#5f92d3;fill-opacity:1;fill-rule:nonzero;stroke:none"
           id="path22114" />
        <path
           d="m 4428.05,2019.52 -59.04,34.08 c -4.73,2.74 -4.14,7.52 1.33,10.68 l 58.5,33.77 c 5.47,3.16 13.75,3.5 18.48,0.77 l 59.04,-34.08 c 4.74,-2.75 4.15,-7.52 -1.33,-10.69 l -58.49,-33.77 c -5.48,-3.15 -13.76,-3.49 -18.49,-0.76"
           style="fill:#5f92d3;fill-opacity:1;fill-rule:nonzero;stroke:none"
           id="path22116" />
        <path
           d="m 4519.21,1966.88 -59.03,34.09 c -4.74,2.73 -4.14,7.52 1.32,10.67 l 58.5,33.78 c 5.47,3.15 13.75,3.5 18.5,0.76 l 59.03,-34.08 c 4.74,-2.74 4.14,-7.52 -1.33,-10.67 l -58.49,-33.77 c -5.47,-3.17 -13.75,-3.51 -18.5,-0.78"
           style="fill:#5f92d3;fill-opacity:1;fill-rule:nonzero;stroke:none"
           id="path22118" />
        <path
           d="m 4610.38,1914.25 -59.03,34.08 c -4.75,2.74 -4.15,7.52 1.33,10.68 l 58.48,33.77 c 5.48,3.16 13.76,3.51 18.5,0.76 l 59.03,-34.08 c 4.74,-2.73 4.14,-7.51 -1.33,-10.67 l -58.49,-33.77 c -5.47,-3.17 -13.75,-3.51 -18.49,-0.77"
           style="fill:#5f92d3;fill-opacity:1;fill-rule:nonzero;stroke:none"
           id="path22120" />
        <path
           d="m 4772.45,1820.68 -128.81,74.37 c -4.73,2.73 -4.14,7.51 1.33,10.67 l 58.5,33.77 c 5.47,3.17 13.75,3.51 18.48,0.77 l 128.81,-74.37 c 4.74,-2.74 4.15,-7.51 -1.33,-10.68 l -58.49,-33.77 c -5.47,-3.16 -13.75,-3.5 -18.49,-0.76"
           style="fill:#5f92d3;fill-opacity:1;fill-rule:nonzero;stroke:none"
           id="path22122" />
        <path
           d="m 4949.94,1923.15 -108.72,62.77 c -4.74,2.73 -4.15,7.52 1.33,10.67 l 58.49,33.78 c 5.47,3.15 13.75,3.5 18.49,0.76 l 108.72,-62.76 c 4.74,-2.75 4.14,-7.52 -1.33,-10.69 l -58.49,-33.76 c -5.47,-3.16 -13.75,-3.5 -18.49,-0.77"
           style="fill:#5f92d3;fill-opacity:1;fill-rule:nonzero;stroke:none"
           id="path22124" />
        <path
           d="m 4040.7,2345.62 -59.03,34.09 c -4.74,2.73 -4.14,7.52 1.33,10.67 l 58.49,33.77 c 5.47,3.16 13.75,3.51 18.49,0.77 l 59.03,-34.08 c 4.75,-2.74 4.15,-7.52 -1.32,-10.67 l -58.49,-33.78 c -5.48,-3.16 -13.75,-3.5 -18.5,-0.77"
           style="fill:#5f92d3;fill-opacity:1;fill-rule:nonzero;stroke:none"
           id="path22126" />
        <path
           d="m 3947.28,2399.57 -59.04,34.08 c -4.74,2.74 -4.15,7.52 1.33,10.68 l 58.49,33.77 c 5.48,3.16 13.75,3.5 18.49,0.77 l 59.04,-34.09 c 4.73,-2.74 4.14,-7.51 -1.33,-10.68 l -58.5,-33.77 c -5.47,-3.15 -13.75,-3.49 -18.48,-0.76"
           style="fill:#5f92d3;fill-opacity:1;fill-rule:nonzero;stroke:none"
           id="path22128" />
        <path
           d="m 3853.84,2453.52 -59.04,34.08 c -4.73,2.73 -4.14,7.51 1.33,10.67 l 58.5,33.77 c 5.47,3.16 13.75,3.51 18.49,0.77 l 59.03,-34.09 c 4.74,-2.73 4.15,-7.51 -1.33,-10.67 l -58.49,-33.77 c -5.47,-3.16 -13.76,-3.51 -18.49,-0.76"
           style="fill:#5f92d3;fill-opacity:1;fill-rule:nonzero;stroke:none"
           id="path22130" />
        <path
           d="m 3760.41,2507.45 -59.03,34.09 c -4.75,2.74 -4.15,7.51 1.32,10.68 l 58.49,33.77 c 5.48,3.15 13.75,3.5 18.5,0.76 l 59.03,-34.08 c 4.74,-2.74 4.14,-7.51 -1.33,-10.68 l -58.49,-33.77 c -5.47,-3.16 -13.75,-3.5 -18.49,-0.77"
           style="fill:#5f92d3;fill-opacity:1;fill-rule:nonzero;stroke:none"
           id="path22132" />
        <path
           d="m 4131.88,2292.99 -59.04,34.08 c -4.74,2.74 -4.15,7.52 1.32,10.68 l 58.5,33.77 c 5.47,3.16 13.75,3.5 18.49,0.76 l 59.04,-34.08 c 4.73,-2.73 4.14,-7.52 -1.33,-10.67 l -58.5,-33.77 c -5.47,-3.16 -13.75,-3.51 -18.48,-0.77"
           style="fill:#5f92d3;fill-opacity:1;fill-rule:nonzero;stroke:none"
           id="path22134" />
        <path
           d="m 4223.04,2240.35 -59.04,34.09 c -4.73,2.74 -4.15,7.51 1.33,10.68 l 58.49,33.77 c 5.48,3.15 13.76,3.5 18.49,0.76 l 59.04,-34.08 c 4.73,-2.74 4.15,-7.51 -1.33,-10.68 l -58.5,-33.77 c -5.47,-3.16 -13.75,-3.5 -18.48,-0.77"
           style="fill:#5f92d3;fill-opacity:1;fill-rule:nonzero;stroke:none"
           id="path22136" />
        <path
           d="m 4314.2,2187.72 -59.03,34.09 c -4.74,2.73 -4.14,7.51 1.32,10.67 l 58.5,33.77 c 5.47,3.16 13.75,3.51 18.49,0.77 l 59.03,-34.08 c 4.75,-2.75 4.15,-7.52 -1.33,-10.68 l -58.48,-33.77 c -5.48,-3.16 -13.75,-3.51 -18.5,-0.77"
           style="fill:#5f92d3;fill-opacity:1;fill-rule:nonzero;stroke:none"
           id="path22138" />
        <path
           d="m 4405.37,2135.09 -59.03,34.08 c -4.75,2.73 -4.15,7.52 1.32,10.67 l 58.49,33.77 c 5.48,3.17 13.75,3.51 18.5,0.77 l 59.03,-34.08 c 4.74,-2.73 4.14,-7.52 -1.33,-10.67 l -58.49,-33.78 c -5.47,-3.16 -13.75,-3.5 -18.49,-0.76"
           style="fill:#5f92d3;fill-opacity:1;fill-rule:nonzero;stroke:none"
           id="path22140" />
        <path
           d="m 4496.53,2082.45 -59.03,34.08 c -4.74,2.74 -4.15,7.52 1.33,10.69 l 58.48,33.77 c 5.48,3.15 13.76,3.49 18.5,0.76 l 59.03,-34.08 c 4.74,-2.74 4.15,-7.52 -1.32,-10.68 l -58.5,-33.77 c -5.47,-3.16 -13.75,-3.5 -18.49,-0.77"
           style="fill:#5f92d3;fill-opacity:1;fill-rule:nonzero;stroke:none"
           id="path22142" />
        <path
           d="m 4587.7,2029.81 -59.04,34.1 c -4.73,2.73 -4.14,7.51 1.33,10.67 l 58.5,33.77 c 5.47,3.15 13.75,3.5 18.48,0.76 l 59.04,-34.08 c 4.74,-2.74 4.15,-7.51 -1.33,-10.68 l -58.49,-33.76 c -5.48,-3.17 -13.75,-3.51 -18.49,-0.78"
           style="fill:#5f92d3;fill-opacity:1;fill-rule:nonzero;stroke:none"
           id="path22144" />
        <path
           d="m 4678.87,1977.19 -59.04,34.08 c -4.74,2.73 -4.15,7.51 1.32,10.67 l 58.5,33.77 c 5.48,3.17 13.75,3.51 18.49,0.77 l 59.04,-34.08 c 4.73,-2.74 4.14,-7.52 -1.33,-10.68 l -58.5,-33.77 c -5.47,-3.16 -13.75,-3.51 -18.48,-0.76"
           style="fill:#5f92d3;fill-opacity:1;fill-rule:nonzero;stroke:none"
           id="path22146" />
        <path
           d="m 4770.03,1924.55 -59.03,34.08 c -4.74,2.74 -4.15,7.52 1.32,10.68 l 58.49,33.77 c 5.48,3.16 13.76,3.5 18.5,0.77 l 59.03,-34.08 c 4.74,-2.74 4.15,-7.52 -1.33,-10.69 l -58.49,-33.77 c -5.47,-3.15 -13.75,-3.49 -18.49,-0.76"
           style="fill:#5f92d3;fill-opacity:1;fill-rule:nonzero;stroke:none"
           id="path22148" />
        <path
           d="m 4861.19,1871.91 -59.03,34.09 c -4.74,2.73 -4.14,7.52 1.33,10.68 l 58.49,33.77 c 5.47,3.15 13.75,3.49 18.49,0.76 l 59.03,-34.08 c 4.75,-2.74 4.15,-7.52 -1.33,-10.68 l -58.48,-33.77 c -5.48,-3.16 -13.75,-3.5 -18.5,-0.77"
           style="fill:#5f92d3;fill-opacity:1;fill-rule:nonzero;stroke:none"
           id="path22150" />
        <path
           d="m 3992.71,2475.81 -59.04,34.08 c -4.74,2.74 -4.15,7.52 1.33,10.69 l 58.49,33.77 c 5.47,3.15 13.75,3.49 18.49,0.76 l 59.04,-34.09 c 4.73,-2.73 4.14,-7.51 -1.33,-10.67 l -58.5,-33.77 c -5.47,-3.16 -13.75,-3.5 -18.48,-0.77"
           style="fill:#5f92d3;fill-opacity:1;fill-rule:nonzero;stroke:none"
           id="path22152" />
        <path
           d="m 3901.99,2528.18 -59.03,34.09 c -4.75,2.73 -4.15,7.51 1.33,10.67 l 58.48,33.78 c 5.48,3.15 13.75,3.49 18.5,0.76 l 59.03,-34.08 c 4.74,-2.74 4.14,-7.52 -1.33,-10.68 l -58.49,-33.77 c -5.47,-3.16 -13.75,-3.5 -18.49,-0.77"
           style="fill:#5f92d3;fill-opacity:1;fill-rule:nonzero;stroke:none"
           id="path22154" />
        <path
           d="m 3811.28,2580.56 -59.03,34.08 c -4.75,2.73 -4.15,7.52 1.32,10.67 l 58.49,33.78 c 5.48,3.16 13.76,3.5 18.5,0.76 l 59.03,-34.08 c 4.74,-2.73 4.14,-7.52 -1.33,-10.67 l -58.49,-33.77 c -5.47,-3.17 -13.75,-3.51 -18.49,-0.77"
           style="fill:#5f92d3;fill-opacity:1;fill-rule:nonzero;stroke:none"
           id="path22156" />
        <path
           d="m 3720.57,2632.93 -59.04,34.08 c -4.73,2.74 -4.15,7.52 1.33,10.67 l 58.49,33.77 c 5.48,3.17 13.76,3.51 18.49,0.78 l 59.04,-34.09 c 4.73,-2.73 4.15,-7.52 -1.33,-10.67 l -58.49,-33.77 c -5.48,-3.16 -13.76,-3.51 -18.49,-0.77"
           style="fill:#5f92d3;fill-opacity:1;fill-rule:nonzero;stroke:none"
           id="path22158" />
        <path
           d="m 3813.85,2686.79 -59.04,34.08 c -4.74,2.73 -4.15,7.52 1.33,10.67 l 19.34,11.16 c 5.47,3.17 13.75,3.51 18.48,0.78 l 59.04,-34.09 c 4.74,-2.74 4.15,-7.52 -1.33,-10.68 l -19.34,-11.16 c -5.46,-3.16 -13.75,-3.5 -18.48,-0.76"
           style="fill:#5f92d3;fill-opacity:1;fill-rule:nonzero;stroke:none"
           id="path22160" />
        <path
           d="m 3932.23,2618.44 -59.04,34.08 c -4.74,2.73 -4.15,7.52 1.33,10.67 l 19.34,11.17 c 5.47,3.16 13.75,3.5 18.48,0.77 l 59.04,-34.09 c 4.74,-2.73 4.15,-7.52 -1.33,-10.67 l -19.34,-11.16 c -5.47,-3.17 -13.75,-3.51 -18.48,-0.77"
           style="fill:#5f92d3;fill-opacity:1;fill-rule:nonzero;stroke:none"
           id="path22162" />
        <path
           d="m 4022.56,2566.29 -59.03,34.08 c -4.74,2.73 -4.15,7.51 1.32,10.67 l 19.34,11.17 c 5.47,3.16 13.75,3.5 18.49,0.77 l 59.03,-34.09 c 4.75,-2.74 4.15,-7.51 -1.32,-10.68 l -19.34,-11.16 c -5.47,-3.16 -13.76,-3.51 -18.49,-0.76"
           style="fill:#5f92d3;fill-opacity:1;fill-rule:nonzero;stroke:none"
           id="path22164" />
        <path
           d="m 4112.89,2514.13 -59.03,34.08 c -4.74,2.74 -4.14,7.52 1.33,10.68 l 19.33,11.16 c 5.47,3.16 13.75,3.5 18.5,0.77 l 59.03,-34.08 c 4.74,-2.74 4.14,-7.52 -1.33,-10.68 l -19.33,-11.17 c -5.48,-3.15 -13.76,-3.49 -18.5,-0.76"
           style="fill:#5f92d3;fill-opacity:1;fill-rule:nonzero;stroke:none"
           id="path22166" />
        <path
           d="m 4203.22,2461.97 -59.03,34.08 c -4.74,2.75 -4.14,7.52 1.33,10.69 l 19.33,11.16 c 5.48,3.15 13.75,3.51 18.5,0.76 l 59.03,-34.08 c 4.74,-2.73 4.14,-7.51 -1.33,-10.67 l -19.33,-11.17 c -5.48,-3.16 -13.75,-3.5 -18.5,-0.77"
           style="fill:#5f92d3;fill-opacity:1;fill-rule:nonzero;stroke:none"
           id="path22168" />
        <path
           d="m 4707.55,2170.81 -59.03,34.08 c -4.75,2.74 -4.15,7.51 1.32,10.68 l 19.34,11.16 c 5.47,3.16 13.75,3.5 18.49,0.77 l 59.03,-34.08 c 4.75,-2.75 4.15,-7.52 -1.33,-10.69 l -19.33,-11.16 c -5.47,-3.15 -13.75,-3.5 -18.49,-0.76"
           style="fill:#5f92d3;fill-opacity:1;fill-rule:nonzero;stroke:none"
           id="path22170" />
        <path
           d="m 4797.88,2118.65 -59.03,34.08 c -4.75,2.74 -4.15,7.52 1.33,10.68 l 19.33,11.17 c 5.47,3.15 13.75,3.5 18.49,0.76 l 59.03,-34.08 c 4.75,-2.74 4.15,-7.52 -1.33,-10.67 l -19.33,-11.18 c -5.47,-3.15 -13.75,-3.49 -18.49,-0.76"
           style="fill:#5f92d3;fill-opacity:1;fill-rule:nonzero;stroke:none"
           id="path22172" />
        <path
           d="m 4888.21,2066.49 -59.03,34.09 c -4.74,2.74 -4.15,7.52 1.33,10.68 l 19.33,11.16 c 5.47,3.16 13.75,3.51 18.5,0.76 l 59.03,-34.08 c 4.74,-2.73 4.14,-7.51 -1.33,-10.67 l -19.33,-11.16 c -5.48,-3.17 -13.76,-3.51 -18.5,-0.78"
           style="fill:#5f92d3;fill-opacity:1;fill-rule:nonzero;stroke:none"
           id="path22174" />
        <path
           d="m 4978.54,2014.35 -59.03,34.08 c -4.73,2.73 -4.14,7.52 1.33,10.67 l 19.34,11.16 c 5.47,3.17 13.75,3.51 18.49,0.77 l 59.04,-34.08 c 4.73,-2.73 4.14,-7.52 -1.33,-10.68 l -19.34,-11.16 c -5.48,-3.16 -13.75,-3.5 -18.5,-0.76"
           style="fill:#5f92d3;fill-opacity:1;fill-rule:nonzero;stroke:none"
           id="path22176" />
        <path
           d="m 4083.87,2423.17 -59.04,34.1 c -4.73,2.73 -4.15,7.5 1.33,10.67 l 58.49,33.77 c 5.48,3.15 13.76,3.5 18.49,0.76 l 59.04,-34.08 c 4.73,-2.74 4.15,-7.51 -1.33,-10.68 l -58.49,-33.77 c -5.48,-3.16 -13.76,-3.5 -18.49,-0.77"
           style="fill:#5f92d3;fill-opacity:1;fill-rule:nonzero;stroke:none"
           id="path22178" />
        <path
           d="m 4175.03,2370.55 -59.03,34.08 c -4.74,2.73 -4.14,7.51 1.32,10.67 l 58.5,33.77 c 5.47,3.17 13.75,3.51 18.49,0.77 l 59.03,-34.08 c 4.75,-2.74 4.15,-7.52 -1.33,-10.68 l -58.48,-33.77 c -5.48,-3.16 -13.75,-3.51 -18.5,-0.76"
           style="fill:#5f92d3;fill-opacity:1;fill-rule:nonzero;stroke:none"
           id="path22180" />
        <path
           d="m 4266.2,2317.91 -59.03,34.08 c -4.75,2.74 -4.15,7.52 1.33,10.68 l 58.48,33.76 c 5.48,3.17 13.75,3.51 18.5,0.78 l 59.03,-34.09 c 4.74,-2.73 4.14,-7.52 -1.33,-10.67 l -58.49,-33.78 c -5.47,-3.15 -13.75,-3.49 -18.49,-0.76"
           style="fill:#5f92d3;fill-opacity:1;fill-rule:nonzero;stroke:none"
           id="path22182" />
        <path
           d="m 4357.36,2265.27 -59.03,34.08 c -4.74,2.74 -4.15,7.52 1.33,10.69 l 58.48,33.77 c 5.48,3.15 13.76,3.49 18.5,0.76 l 59.03,-34.08 c 4.74,-2.74 4.15,-7.52 -1.32,-10.68 l -58.49,-33.77 c -5.48,-3.16 -13.76,-3.5 -18.5,-0.77"
           style="fill:#5f92d3;fill-opacity:1;fill-rule:nonzero;stroke:none"
           id="path22184" />
        <path
           d="m 4448.53,2212.64 -59.04,34.08 c -4.73,2.74 -4.14,7.52 1.33,10.68 l 58.5,33.77 c 5.47,3.16 13.75,3.51 18.48,0.76 l 59.04,-34.08 c 4.74,-2.73 4.15,-7.51 -1.33,-10.67 l -58.49,-33.77 c -5.48,-3.17 -13.75,-3.51 -18.49,-0.77"
           style="fill:#5f92d3;fill-opacity:1;fill-rule:nonzero;stroke:none"
           id="path22186" />
        <path
           d="m 4539.7,2160.01 -59.04,34.08 c -4.74,2.74 -4.15,7.51 1.33,10.68 l 58.49,33.76 c 5.48,3.17 13.75,3.51 18.49,0.78 l 59.04,-34.09 c 4.73,-2.74 4.14,-7.52 -1.33,-10.68 l -58.5,-33.77 c -5.47,-3.15 -13.75,-3.5 -18.48,-0.76"
           style="fill:#5f92d3;fill-opacity:1;fill-rule:nonzero;stroke:none"
           id="path22188" />
        <path
           d="m 4630.86,2107.37 -59.03,34.08 c -4.74,2.74 -4.15,7.52 1.32,10.68 l 58.49,33.77 c 5.48,3.16 13.76,3.5 18.5,0.77 l 59.03,-34.08 c 4.74,-2.74 4.15,-7.52 -1.33,-10.69 l -58.48,-33.77 c -5.48,-3.15 -13.76,-3.49 -18.5,-0.76"
           style="fill:#5f92d3;fill-opacity:1;fill-rule:nonzero;stroke:none"
           id="path22190" />
        <path
           d="m 4722.02,2054.74 -59.03,34.08 c -4.74,2.73 -4.14,7.52 1.33,10.67 l 58.49,33.78 c 5.47,3.16 13.75,3.5 18.49,0.76 l 59.03,-34.08 c 4.75,-2.73 4.15,-7.52 -1.33,-10.67 l -58.48,-33.77 c -5.48,-3.17 -13.75,-3.51 -18.5,-0.77"
           style="fill:#5f92d3;fill-opacity:1;fill-rule:nonzero;stroke:none"
           id="path22192" />
        <path
           d="m 4813.19,2002.1 -59.03,34.08 c -4.75,2.75 -4.15,7.52 1.33,10.68 l 58.48,33.77 c 5.48,3.16 13.75,3.51 18.5,0.77 l 59.03,-34.09 c 4.74,-2.73 4.14,-7.51 -1.32,-10.67 l -58.5,-33.77 c -5.47,-3.16 -13.75,-3.51 -18.49,-0.77"
           style="fill:#5f92d3;fill-opacity:1;fill-rule:nonzero;stroke:none"
           id="path22194" />
        <path
           d="m 3562.66,2416.68 -173.86,100.38 c -4.74,2.73 -4.14,7.51 1.33,10.67 l 58.49,33.77 c 5.47,3.17 13.75,3.51 18.49,0.77 l 173.86,-100.38 c 4.74,-2.73 4.15,-7.52 -1.32,-10.67 l -58.5,-33.78 c -5.48,-3.15 -13.75,-3.5 -18.49,-0.76"
           style="fill:#5f92d3;fill-opacity:1;fill-rule:nonzero;stroke:none"
           id="path22196" />
        <path
           d="m 4682.65,1770.06 -173.86,100.37 c -4.74,2.73 -4.15,7.52 1.33,10.67 l 58.48,33.78 c 5.48,3.16 13.76,3.5 18.5,0.76 l 173.86,-100.38 c 4.74,-2.73 4.15,-7.51 -1.33,-10.67 l -58.49,-33.77 c -5.48,-3.16 -13.76,-3.51 -18.49,-0.76"
           style="fill:#5f92d3;fill-opacity:1;fill-rule:nonzero;stroke:none"
           id="path22198" />
        <path
           d="m 4318.07,1864.29 -59.04,34.08 c -4.74,2.73 -4.15,7.51 1.33,10.67 l 69.68,40.23 c 5.47,3.16 13.75,3.5 18.5,0.77 l 59.03,-34.08 c 4.73,-2.74 4.14,-7.52 -1.33,-10.68 l -69.69,-40.23 c -5.47,-3.17 -13.75,-3.51 -18.48,-0.76"
           style="fill:#5f92d3;fill-opacity:1;fill-rule:nonzero;stroke:none"
           id="path22200" />
        <path
           d="m 3656.02,2246.51 -94.41,54.51 c -4.74,2.74 -4.15,7.51 1.33,10.68 l 69.68,40.22 c 5.47,3.17 13.75,3.51 18.49,0.77 l 94.41,-54.51 c 4.74,-2.73 4.15,-7.51 -1.33,-10.67 l -69.68,-40.23 c -5.47,-3.16 -13.75,-3.5 -18.49,-0.77"
           style="fill:#5f92d3;fill-opacity:1;fill-rule:nonzero;stroke:none"
           id="path22202" />
        <path
           d="m 4230.22,1915 -94.41,54.5 c -4.74,2.75 -4.14,7.52 1.33,10.68 l 69.69,40.23 c 5.46,3.16 13.75,3.51 18.48,0.77 l 94.42,-54.51 c 4.73,-2.74 4.14,-7.52 -1.33,-10.67 l -69.68,-40.24 c -5.48,-3.15 -13.76,-3.5 -18.5,-0.76"
           style="fill:#5f92d3;fill-opacity:1;fill-rule:nonzero;stroke:none"
           id="path22204" />
        <path
           d="m 3787.55,2170.58 -94.41,54.5 c -4.74,2.74 -4.15,7.52 1.33,10.68 l 69.68,40.23 c 5.47,3.16 13.75,3.5 18.49,0.77 l 94.41,-54.51 c 4.74,-2.74 4.15,-7.52 -1.33,-10.68 l -69.68,-40.23 c -5.47,-3.16 -13.75,-3.5 -18.49,-0.76"
           style="fill:#5f92d3;fill-opacity:1;fill-rule:nonzero;stroke:none"
           id="path22206" />
        <path
           d="m 3783.28,2276.39 410.47,-236.99 c 5.1,-2.95 5.1,-7.71 0,-10.65 l -71.05,-41.03 c -5.09,-2.94 -13.35,-2.94 -18.45,0 l -410.47,237 89.5,51.67"
           style="fill:#5f92d3;fill-opacity:1;fill-rule:nonzero;stroke:none"
           id="path22208" />
        <path
           d="m 4572.86,1768.85 65.75,-37.96 c 3.89,-2.25 3.4,-6.16 -1.08,-8.75 l -28.51,-16.47 c -4.49,-2.58 -11.27,-2.87 -15.15,-0.62 l -65.76,37.97 c -3.89,2.23 -3.4,6.16 1.09,8.75 l 28.5,16.45 c 4.49,2.59 11.27,2.87 15.16,0.63"
           style="fill:#5f92d3;fill-opacity:1;fill-rule:nonzero;stroke:none"
           id="path22210" />
        <path
           d="m 4480.94,1821.92 65.75,-37.97 c 3.89,-2.24 3.4,-6.16 -1.08,-8.75 l -28.51,-16.45 c -4.48,-2.59 -11.27,-2.87 -15.16,-0.63 l -65.76,37.96 c -3.88,2.25 -3.39,6.17 1.1,8.75 l 28.5,16.46 c 4.48,2.6 11.27,2.87 15.16,0.63"
           style="fill:#5f92d3;fill-opacity:1;fill-rule:nonzero;stroke:none"
           id="path22212" />
        <path
           d="m 4389.78,1874.56 65.75,-37.97 c 3.88,-2.24 3.4,-6.16 -1.09,-8.75 l -28.5,-16.45 c -4.49,-2.6 -11.28,-2.87 -15.16,-0.64 l -65.76,37.97 c -3.89,2.25 -3.4,6.16 1.09,8.75 l 28.5,16.46 c 4.49,2.58 11.28,2.87 15.17,0.63"
           style="fill:#5f92d3;fill-opacity:1;fill-rule:nonzero;stroke:none"
           id="path22214" />
        <path
           d="m 4531.28,1850.99 65.76,-37.97 c 3.88,-2.24 3.39,-6.16 -1.09,-8.75 l -28.51,-16.46 c -4.48,-2.59 -11.27,-2.87 -15.15,-0.62 l -65.76,37.96 c -3.88,2.24 -3.4,6.16 1.09,8.76 l 28.5,16.45 c 4.49,2.59 11.27,2.87 15.16,0.63"
           style="fill:#5f92d3;fill-opacity:1;fill-rule:nonzero;stroke:none"
           id="path22216" />
        <path
           d="m 4891.4,2878.03 -491.07,283.51 6.32,31.92 491.06,-283.51 -6.31,-31.92"
           style="fill:#d9effb;fill-opacity:1;fill-rule:nonzero;stroke:none"
           id="path22218" />
        <path
           d="m 4715.52,2824.15 -342.79,197.91 6.32,31.92 342.79,-197.91 -6.32,-31.92"
           style="fill:#d9effb;fill-opacity:1;fill-rule:nonzero;stroke:none"
           id="path22220" />
        <path
           d="m 4683.09,2920.59 -296.56,171.21 6.32,31.92 296.54,-171.21 -6.3,-31.92"
           style="fill:#ffffff;fill-opacity:1;fill-rule:nonzero;stroke:none"
           id="path22222" />
        <path
           d="m 4877.6,2808.29 -148.28,85.61 6.31,31.92 148.28,-85.61 -6.31,-31.92"
           style="fill:#ee1696;fill-opacity:1;fill-rule:nonzero;stroke:none"
           id="path22224" />
        <path
           d="m 4348.04,3440.06 -148.27,85.61 6.3,31.93 148.29,-85.62 -6.32,-31.92"
           style="fill:#d9effb;fill-opacity:1;fill-rule:nonzero;stroke:none"
           id="path22226" />
        <path
           d="m 4331.94,3365.87 -148.27,85.61 6.32,31.92 148.27,-85.61 -6.32,-31.92"
           style="fill:#ffffff;fill-opacity:1;fill-rule:nonzero;stroke:none"
           id="path22228" />
        <path
           d="m 5059.71,2336.83 -148.28,85.6 6.31,31.92 148.28,-85.6 -6.31,-31.92"
           style="fill:#d9effb;fill-opacity:1;fill-rule:nonzero;stroke:none"
           id="path22230" />
        <path
           d="m 4299.77,3217.49 -148.28,85.61 6.32,31.92 148.27,-85.61 -6.31,-31.92"
           style="fill:#d9effb;fill-opacity:1;fill-rule:nonzero;stroke:none"
           id="path22232" />
        <path
           d="m 4620.14,3194.51 c -4.72,-10.31 -16.66,-13.98 -26.66,-8.21 -9.99,5.77 -14.27,18.81 -9.54,29.11 4.72,10.31 16.66,13.98 26.66,8.21 9.99,-5.77 14.26,-18.81 9.54,-29.11"
           style="fill:#ee1696;fill-opacity:1;fill-rule:nonzero;stroke:none"
           id="path22234" />
        <path
           d="m 4684,3157.64 c -4.72,-10.32 -16.66,-13.99 -26.66,-8.22 -10,5.77 -14.26,18.81 -9.54,29.11 4.72,10.32 16.66,13.99 26.65,8.22 10,-5.77 14.28,-18.81 9.55,-29.11"
           style="fill:#ffffff;fill-opacity:1;fill-rule:nonzero;stroke:none"
           id="path22236" />
        <path
           d="m 4747.87,3120.76 c -4.73,-10.3 -16.66,-13.98 -26.66,-8.21 -10,5.77 -14.27,18.81 -9.55,29.12 4.73,10.3 16.66,13.98 26.66,8.2 10,-5.77 14.28,-18.81 9.55,-29.11"
           style="fill:#d9effb;fill-opacity:1;fill-rule:nonzero;stroke:none"
           id="path22238" />
        <path
           d="m 4811.74,3083.89 c -4.73,-10.31 -16.66,-13.99 -26.66,-8.22 -10,5.78 -14.28,18.81 -9.55,29.12 4.72,10.31 16.66,13.99 26.66,8.22 10,-5.78 14.27,-18.81 9.55,-29.12"
           style="fill:#ee1696;fill-opacity:1;fill-rule:nonzero;stroke:none"
           id="path22240" />
        <path
           d="m 4493.19,460.52 c -13.01,0 -26.02,2.871 -35.94,8.601 -19.86,11.469 -19.87,30.051 0,41.508 l 927.36,535.621 c 9.93,5.73 22.94,8.6 35.95,8.6 13.01,0 26.02,-2.87 35.94,-8.6 19.86,-11.46 19.86,-30.05 0,-41.5 L 4529.14,469.121 c -9.93,-5.73 -22.94,-8.601 -35.95,-8.601"
           style="fill:#1a1a1a;fill-opacity:0.395492;fill-rule:nonzero;stroke:none;filter:url(#filter28903)"
           id="path22242" />
        <path
           d="m 5614.99,1336.4 v 0 c -0.89,1.51 -2.65,2.28 -4.36,1.91 l -56.1,-12.17 22.09,-37.58 37.91,43.1 c 1.16,1.31 1.35,3.22 0.46,4.74"
           style="fill:#d9effb;fill-opacity:1;fill-rule:nonzero;stroke:none"
           id="path22244" />
        <path
           d="m 5592.86,1308.67 c -0.06,8.1 -5.82,17.89 -12.86,21.88 -3.25,1.84 -6.18,2.07 -8.41,1.04 -64.83,0.53 -128.58,-16.54 -184.47,-49.38 l -4.05,-2.39 69.67,-118.54 20.58,13.64 c 43.55,28.89 80.25,66.93 107.54,111.5 l 8.81,14.38 c 1.99,1.46 3.22,4.12 3.19,7.87"
           style="fill:#5f92d3;fill-opacity:1;fill-rule:nonzero;stroke:none"
           id="path22246" />
        <path
           d="m 5466.74,1192.86 c -0.25,31.01 -22.31,68.54 -49.27,83.83 -26.97,15.28 -48.63,2.55 -48.4,-28.45 0.25,-31 22.31,-68.52 49.28,-83.82 26.96,-15.29 48.63,-2.56 48.39,28.44"
           style="fill:#d9effb;fill-opacity:1;fill-rule:nonzero;stroke:none"
           id="path22248" />
        <path
           d="m 5039.21,903.648 413.53,257.632 -69.67,118.54 -426.19,-236.1 82.33,-140.072"
           style="fill:#d9effb;fill-opacity:1;fill-rule:nonzero;stroke:none"
           id="path22250" />
        <path
           d="m 5055.74,940.969 c -0.28,36.633 -26.35,80.971 -58.22,99.041 -31.87,18.07 -57.46,3.02 -57.18,-33.61 0.29,-36.63 26.35,-80.97 58.21,-99.048 31.88,-18.063 57.48,-3.012 57.19,33.617"
           style="fill:#d9effb;fill-opacity:1;fill-rule:nonzero;stroke:none"
           id="path22252" />
        <path
           d="m 5032.15,927.102 c -0.28,36.628 -26.35,80.978 -58.21,99.038 -31.87,18.07 -57.48,3.02 -57.19,-33.609 0.28,-36.633 26.35,-80.972 58.22,-99.043 31.87,-18.066 57.47,-3.019 57.18,33.614"
           style="fill:#d9effb;fill-opacity:1;fill-rule:nonzero;stroke:none"
           id="path22254" />
        <path
           d="m 4468.52,568.191 547.1,321.59 -82.34,140.069 -547.1,-321.588 82.34,-140.071"
           style="fill:#d9effb;fill-opacity:1;fill-rule:nonzero;stroke:none"
           id="path22256" />
        <path
           d="m 4485.05,605.52 c -0.28,36.628 -26.35,80.96 -58.22,99.039 -31.87,18.07 -57.47,3.023 -57.18,-33.61 0.28,-36.629 26.35,-80.98 58.21,-99.051 31.87,-18.058 57.47,-3.007 57.19,33.622"
           style="fill:#d9effb;fill-opacity:1;fill-rule:nonzero;stroke:none"
           id="path22258" />
        <path
           d="m 4464.39,617.23 c -1.26,21.622 -18.86,48.551 -39.32,60.149 -20.47,11.601 -36.04,3.48 -34.78,-18.137 1.27,-21.621 18.88,-48.562 39.34,-60.164 20.46,-11.598 36.02,-3.476 34.76,18.152"
           style="fill:#4067b1;fill-opacity:1;fill-rule:nonzero;stroke:none"
           id="path22260" />
        <path
           d="m 5059.9,943.422 c -0.28,36.617 -26.36,80.958 -58.22,99.028 -12.83,7.29 -24.61,9.1 -34.13,6.39 10.34,10.81 27.3,12.09 46.62,1.14 31.87,-18.07 57.93,-62.41 58.22,-99.039 0.17,-21.882 -8.93,-35.98 -23.05,-40 6.72,7.028 10.67,18.028 10.56,32.481"
           style="fill:#ffffff;fill-opacity:1;fill-rule:nonzero;stroke:none"
           id="path22262" />
        <path
           d="m 5059.9,943.41 c -0.28,36.629 -26.35,80.97 -58.22,99.05 -15.93,9.03 -30.3,9.79 -40.65,3.7 l -31,-18.22 14.77,-25.13 c 2.7,-33.31 24.99,-71.251 52.8,-89.798 l 14.76,-25.141 31.01,18.219 c 10.34,6.09 16.67,19.012 16.53,37.32"
           style="fill:#5f92d3;fill-opacity:1;fill-rule:nonzero;stroke:none"
           id="path22264" />
        <path
           d="m 5028.9,925.18 c -0.29,36.64 -26.35,80.98 -58.22,99.05 -31.86,18.07 -57.47,3.03 -57.18,-33.609 0.29,-36.633 26.35,-80.973 58.22,-99.043 31.86,-18.066 57.47,-3.027 57.18,33.602"
           style="fill:#d9effb;fill-opacity:1;fill-rule:nonzero;stroke:none"
           id="path22266" />
        <path
           d="m 4438.64,600.969 -35.52,60.429 -115.96,-68.168 c -16.69,-9.8 -22.27,-31.289 -12.45,-47.98 9.8,-16.691 31.29,-22.258 47.97,-12.449 l 115.96,68.168"
           style="fill:#ee1696;fill-opacity:1;fill-rule:nonzero;stroke:none"
           id="path22268" />
        <path
           d="m 4445.77,617.059 c -0.12,15.812 -11.37,34.941 -25.12,42.73 -13.75,7.801 -24.79,1.313 -24.66,-14.5 0.12,-15.801 11.36,-34.93 25.11,-42.73 13.75,-7.789 24.8,-1.297 24.67,14.5"
           style="fill:#ee1696;fill-opacity:1;fill-rule:nonzero;stroke:none"
           id="path22270" />
        <path
           d="m 4574.66,830.391 -17.38,9.859 c -9.99,5.66 -23.21,4.238 -37.2,-3.98 l -59.59,-35.032 c -11.25,-6.609 -20.31,-22.597 -20.22,-35.648 l 0.24,-29.828 c 0.04,-5 -2.42,-10.75 -6,-14.981 l 2.23,-13.82 -14.86,8.519 0.03,0.02 c -2.14,1.078 -3.51,3.578 -3.54,7.25 l -0.24,29.832 c -0.2,27.199 18.71,60.547 42.16,74.328 l 59.59,35.031 c 19.91,11.7 38.69,13.707 52.91,5.668 l 17.39,-9.871 c 9.98,-5.656 23.19,-4.238 37.19,3.981 l 240.21,141.191 c 3.1,1.83 5.91,1.98 7.94,0.77 v 0.02 l 14.81,-8.489 -12.68,-4.883 c -1.76,-5.34 -5.49,-10.519 -9.88,-13.09 l -240.2,-141.199 c -19.91,-11.699 -38.7,-13.707 -52.91,-5.648"
           style="fill:#5f92d3;fill-opacity:1;fill-rule:nonzero;stroke:none"
           id="path22272" />
        <path
           d="m 4572.32,831.629 c -9.99,5.66 -23.19,4.25 -37.19,-3.969 l -59.59,-35.031 c -11.25,-6.609 -20.32,-22.609 -20.22,-35.66 l 0.24,-29.821 c 0.06,-7.089 -4.86,-15.75 -10.97,-19.347 -6.11,-3.59 -11.11,-0.75 -11.17,6.34 l -0.23,29.82 c -0.21,27.199 18.69,60.559 42.15,74.34 l 59.59,35.031 c 19.9,11.699 38.7,13.707 52.91,5.648 l 17.38,-9.859 c 9.99,-5.652 23.2,-4.25 37.2,3.981 l 240.21,141.199 c 6.11,3.59 11.11,0.758 11.17,-6.332 0.05,-7.09 -4.86,-15.75 -10.98,-19.348 L 4642.63,827.43 c -19.92,-11.711 -38.71,-13.711 -52.92,-5.66 l -17.39,9.859"
           style="fill:#5f92d3;fill-opacity:1;fill-rule:nonzero;stroke:none"
           id="path22274" />
        <path
           d="m 4454.58,752.051 0.22,-29.821 -0.08,-0.609 c 0.54,1.879 0.85,3.75 0.84,5.527 l -0.24,29.821 0.2,2.613 c -0.57,-2.562 -0.96,-5.102 -0.94,-7.531"
           style="fill:#ffffff;fill-opacity:1;fill-rule:nonzero;stroke:none"
           id="path22276" />
        <path
           d="m 3227.13,538.949 c -20.19,0 -39.46,4.071 -53.86,12.391 l -335.85,193.898 c -24.11,13.922 -27.59,35.723 -11.86,54.692 l -93.21,54.558 c -65.31,-34.258 -147.95,-51.406 -230.54,-51.406 -87.52,0 -175,19.25 -241.82,57.828 -130.05,75.09 -133.64,195.47 -10.94,273.12 2.26,-2.02 4.59,-4.01 7.01,-5.98 2.95,-7.48 6.85,-14.86 11.57,-22.1 -76.14,-64.13 -64.95,-152.411 33.7,-209.372 55.69,-32.148 128.67,-48.226 201.66,-48.226 72.98,0 145.97,16.078 201.66,48.226 82.1,47.402 103.6,116.502 64.66,175.312 11.14,9.53 20.43,19.55 27.78,29.95 70.98,-68.94 63.13,-157.41 -23.58,-222.02 l 92.42,-54.09 c 15.96,5.692 33.64,8.59 50.65,8.59 20.14,0 39.36,-4.058 53.73,-12.359 l 335.85,-193.902 c 31.79,-18.34 27.8,-50.387 -8.9,-71.59 -20.06,-11.578 -45.76,-17.52 -70.13,-17.52"
           style="fill:#1a1a1a;fill-opacity:0.395492;fill-rule:nonzero;stroke:none;filter:url(#filter28911)"
           id="path22278" />
        <path
           d="m 2825.63,1152.13 -47.44,61.83 -144.01,66.93 -124.08,11.01 -145.31,-17.78 -100.81,-52.1 -64.39,-41.09 -11.57,66.92 21.74,77.09 c 0,0 55.06,36.43 58.45,39.82 3.39,3.38 128.77,48.29 128.77,48.29 l 125.38,8.47 100.8,-12.71 102.51,-30.5 67.77,-47.43 50.83,-64.39 5.72,-80.48 -24.36,-33.88"
           style="fill:#d1078d;fill-opacity:1;fill-rule:nonzero;stroke:none"
           id="path22280" />
        <path
           d="M 2153.19,1231.56 V 1101.3 l 34.83,56.47 z"
           style="fill:#d1078d;fill-opacity:1;fill-rule:nonzero;stroke:none"
           id="path22282" />
        <path
           d="m 2729.93,1224.79 c -121.41,70.09 -318.25,70.09 -439.66,0 -38.19,-22.05 -64.34,-48.41 -78.51,-76.36 -10.69,9.57 -24.46,17.09 -30.18,29.98 17.4,23.67 42.72,45.87 76.15,65.16 139.38,80.48 365.36,80.48 504.74,0.01 30.5,-17.61 54.33,-37.61 71.48,-58.97 -5.62,-13.13 -14.13,-25.81 -25.47,-36.29 -14.15,28 -40.32,54.39 -78.55,76.47"
           style="fill:#d1078d;fill-opacity:1;fill-rule:nonzero;stroke:none"
           id="path22284" />
        <path
           d="m 2510.08,1052.07 c -79.56,0 -159.11,17.52 -219.81,52.57 -12.75,7.36 -24.15,15.2 -34.21,23.41 0,0.01 -0.01,0.01 -0.01,0.02 0.08,-0.06 0.16,-0.13 0.23,-0.19 5.39,3.66 10.98,7.25 16.96,10.7 60.71,35.06 140.27,52.58 219.84,52.58 79.55,0 159.12,-17.53 219.82,-52.57 12.68,-7.32 23.92,-15.15 33.92,-23.34 22.32,15.12 39.59,31.87 51.83,49.5 l 0.01,-0.01 c -15.15,-21.88 -38.06,-42.38 -68.74,-60.09 -60.71,-35.05 -140.28,-52.58 -219.84,-52.58 m -261.03,81.96 c -11,9.8 -20.17,20.09 -27.53,30.7 0.01,0 0.01,0 0.01,0.01 7.35,-10.62 16.53,-20.91 27.53,-30.71 h -0.01"
           style="fill:#eef8fd;fill-opacity:0.480713;fill-rule:nonzero;stroke:none"
           id="path22286" />
        <path
           d="m 2256.06,1128.05 c -2.42,1.97 -4.75,3.96 -7.01,5.98 h 0.01 c 2.25,-2.01 4.59,-4 6.99,-5.96 0,-0.01 0.01,-0.01 0.01,-0.02"
           style="fill:#b2c6e2;fill-opacity:1;fill-rule:nonzero;stroke:none"
           id="path22288" />
        <path
           d="m 2746.82,1115.25 c -10,8.19 -21.24,16.02 -33.92,23.34 -60.7,35.04 -140.27,52.57 -219.82,52.57 -79.57,0 -159.13,-17.52 -219.84,-52.58 -5.98,-3.45 -11.57,-7.04 -16.96,-10.7 -0.07,0.06 -0.15,0.13 -0.23,0.19 -1.11,2.82 -2.09,5.65 -2.92,8.49 -1.37,-0.84 -2.73,-1.68 -4.07,-2.53 -11,9.8 -20.18,20.09 -27.53,30.71 15.17,21.85 38.08,42.35 68.74,60.05 60.71,35.05 140.27,52.57 219.84,52.57 79.55,0 159.12,-17.53 219.82,-52.57 30.65,-17.7 53.55,-38.18 68.72,-60.04 -12.24,-17.63 -29.51,-34.38 -51.83,-49.5"
           style="fill:#e4f4fc;fill-opacity:1;fill-rule:nonzero;stroke:none"
           id="path22290" />
        <path
           d="m 2256.05,1128.07 c -2.4,1.96 -4.74,3.95 -6.99,5.96 1.34,0.85 2.7,1.69 4.07,2.53 0.83,-2.84 1.81,-5.67 2.92,-8.49"
           style="fill:#c6dcf1;fill-opacity:1;fill-rule:nonzero;stroke:none"
           id="path22292" />
        <path
           d="m 2203.2,1203.08 c -0.46,1.66 -0.88,3.33 -1.26,4.99 8.6,37.84 38,74.39 88.33,103.45 60.71,35.05 140.28,52.58 219.84,52.58 79.56,0 159.11,-17.52 219.82,-52.57 50.33,-29.06 79.73,-65.61 88.32,-103.44 -0.37,-1.65 -0.79,-3.29 -1.24,-4.94 -14.87,14.42 -33.05,28.02 -54.54,40.43 -69.69,40.24 -161.02,60.35 -252.36,60.35 -91.34,0 -182.69,-20.12 -252.38,-60.36 -21.52,-12.42 -39.68,-26.04 -54.53,-40.49"
           style="fill:#ca5fb6;fill-opacity:1;fill-rule:nonzero;stroke:none"
           id="path22294" />
        <path
           d="m 2221.52,1164.73 c -8.6,12.43 -14.71,25.3 -18.32,38.35 14.85,14.45 33.01,28.07 54.53,40.49 69.69,40.24 161.04,60.36 252.38,60.36 91.34,0 182.67,-20.11 252.36,-60.35 21.49,-12.41 39.67,-26.01 54.54,-40.43 -3.61,-13.08 -9.73,-25.97 -18.35,-38.41 l -0.01,0.01 c -15.17,21.86 -38.07,42.34 -68.72,60.04 -60.7,35.04 -140.27,52.57 -219.82,52.57 -79.57,0 -159.13,-17.52 -219.84,-52.57 -30.66,-17.7 -53.57,-38.2 -68.74,-60.05 0,-0.01 0,-0.01 -0.01,-0.01"
           style="fill:#ca5fb6;fill-opacity:1;fill-rule:nonzero;stroke:none"
           id="path22296" />
        <path
           d="m 2181.58,1178.41 c 2.43,-5.48 6.35,-9.97 10.85,-14.08 l 0.1,1.35 32.2,-19.2 39.53,-36.71 54.78,-24.28 75.68,-27.11 67.21,-15.81 92.62,-3.96 59.86,6.21 118.6,31.07 77.29,68.33 c -0.63,1.37 -1.13,2.74 -1.82,4.1 11.34,10.48 19.85,23.16 25.47,36.29 2.09,-2.61 4.07,-5.24 5.96,-7.87 l 27.09,56.43 v -135.3 l -0.06,0.12 c 0.05,-52.78 -34.73,-105.56 -104.48,-145.818 -139.38,-80.473 -365.36,-80.481 -504.74,-0.012 -105.95,61.17 -131.27,151.22 -76.14,226.25"
           style="fill:#d1078d;fill-opacity:1;fill-rule:nonzero;stroke:none"
           id="path22298" />
        <path
           d="m 2782.43,1119.57 27.87,24.65 c -0.63,1.37 -1.13,2.74 -1.82,4.1 11.34,10.48 19.85,23.16 25.47,36.29 2.09,-2.61 4.07,-5.24 5.96,-7.87 l 27.09,56.43 v -135.3 l -0.06,0.12 c 0.05,-47.44 -28.16,-94.87 -84.51,-133.22 v 154.8"
           style="fill:#ee1696;fill-opacity:1;fill-rule:nonzero;stroke:none"
           id="path22300" />
        <path
           d="m 2290.27,1358.48 c 121.41,70.09 318.25,70.09 439.66,0 121.4,-70.09 121.4,-183.73 -0.01,-253.83 -121.41,-70.1 -318.25,-70.1 -439.65,-0.01 -121.41,70.1 -121.41,183.74 0,253.84 z m -32.55,-272.63 c 139.38,-80.47 365.36,-80.47 504.74,0.01 139.39,80.47 139.39,210.94 0.01,291.41 -139.38,80.47 -365.36,80.46 -504.74,0 -139.39,-80.47 -139.39,-210.95 -0.01,-291.42"
           style="fill:#ee1696;fill-opacity:1;fill-rule:nonzero;stroke:none"
           id="path22302" />
        <path
           d="m 2995.92,938.18 -197.82,115.11 -26.3,-42.61 198.72,-115.731 25.4,43.231"
           style="fill:#d9effb;fill-opacity:1;fill-rule:nonzero;stroke:none"
           id="path22304" />
        <path
           d="m 2965.48,906.332 c 0,-11.312 7.94,-15.891 17.74,-10.242 9.79,5.66 17.73,19.41 17.73,30.719 0,11.3 -7.94,15.882 -17.73,10.23 -9.8,-5.648 -17.74,-19.398 -17.74,-30.707"
           style="fill:#7844a6;fill-opacity:1;fill-rule:nonzero;stroke:none"
           id="path22306" />
        <path
           d="m 2965.48,906.332 c 0,-11.312 7.94,-15.891 17.74,-10.242 9.79,5.66 17.73,19.41 17.73,30.719 0,11.3 -7.94,15.882 -17.73,10.23 -9.8,-5.648 -17.74,-19.398 -17.74,-30.707"
           style="fill:#7844a6;fill-opacity:1;fill-rule:nonzero;stroke:none"
           id="path22308" />
        <path
           d="m 2767.6,1021.48 c 0,-11.3 7.94,-15.89 17.74,-10.24 9.79,5.65 17.73,19.4 17.73,30.71 0,11.31 -7.94,15.9 -17.73,10.25 -9.8,-5.66 -17.74,-19.41 -17.74,-30.72"
           style="fill:#d9effb;fill-opacity:1;fill-rule:nonzero;stroke:none"
           id="path22310" />
        <path
           d="m 2868.17,897.98 c 0,48.649 34.16,107.82 76.3,132.15 21.57,12.46 41.01,13.3 54.89,4.69 l 0.02,0.04 418.23,-243.059 -109.29,-186.02 -413.81,240.918 c -2.84,1.211 -5.5,2.742 -7.95,4.633 l -0.35,0.199 0.02,0.028 c -11.24,8.851 -18.06,24.742 -18.06,46.421"
           style="fill:#5f92d3;fill-opacity:1;fill-rule:nonzero;stroke:none"
           id="path22312" />
        <path
           d="m 3387.34,740.281 -468.09,270.259 c 7.91,7.76 16.37,14.48 25.22,19.59 21.57,12.46 41.01,13.3 54.89,4.69 l 0.02,0.04 418.23,-243.059 -30.27,-51.52"
           style="fill:#d9effb;fill-opacity:1;fill-rule:nonzero;stroke:none"
           id="path22314" />
        <path
           d="m 3286.66,654.738 c 0,-48.656 34.16,-68.379 76.3,-44.047 42.14,24.329 76.3,83.5 76.3,132.149 0,48.648 -34.16,68.379 -76.3,44.051 -42.14,-24.332 -76.3,-83.493 -76.3,-132.153"
           style="fill:#d9effb;fill-opacity:1;fill-rule:nonzero;stroke:none"
           id="path22316" />
        <path
           d="m 3348.62,677.469 c 0,-27.449 22.25,-49.699 49.7,-49.699 27.45,0 49.7,22.25 49.7,49.699 0,27.453 -22.25,49.703 -49.7,49.703 -27.45,0 -49.7,-22.25 -49.7,-49.703"
           style="fill:#5f92d3;fill-opacity:1;fill-rule:nonzero;stroke:none"
           id="path22318" />
        <path
           d="m 3407.41,695.68 c 0,-8.098 6.57,-14.68 14.69,-14.68 8.11,0 14.68,6.582 14.68,14.68 0,8.109 -6.57,14.691 -14.68,14.691 -8.12,0 -14.69,-6.582 -14.69,-14.691"
           style="fill:#ffffff;fill-opacity:1;fill-rule:nonzero;stroke:none"
           id="path22320" />
        <path
           d="m 3357.33,790.16 c 22.55,13.012 42.75,13.32 56.72,3.422 -13.53,6.316 -31.41,4.668 -51.09,-6.691 -42.14,-24.332 -76.3,-83.493 -76.3,-132.153 0,-22.617 7.45,-38.886 19.59,-47.468 -15.45,7.191 -25.21,24.8 -25.21,50.742 0,48.648 34.16,107.82 76.29,132.148"
           style="fill:#ffffff;fill-opacity:1;fill-rule:nonzero;stroke:none"
           id="path22322" />
        <path
           d="m 2290.27,1358.48 c 121.41,70.09 318.25,70.09 439.66,0 63.21,-36.5 93.43,-84.81 90.81,-132.63 -2.41,44 -32.63,87.6 -90.81,121.19 -121.41,70.1 -318.25,70.09 -439.66,0 -58.19,-33.59 -88.4,-77.2 -90.82,-121.2 -2.62,47.82 27.6,96.13 90.82,132.64"
           style="fill:#ffffff;fill-opacity:1;fill-rule:nonzero;stroke:none"
           id="path22324" />
        <path
           d="m 2257.72,1085.85 c 139.38,-80.47 365.36,-80.47 504.74,0.01 67.17,38.78 101.88,89.17 104.31,139.99 2.61,-54.63 -32.09,-109.74 -104.31,-151.43 -139.38,-80.479 -365.36,-80.479 -504.74,-0.01 -72.21,41.69 -106.9,96.8 -104.3,151.43 2.43,-50.82 37.13,-101.21 104.3,-139.99"
           style="fill:#ffffff;fill-opacity:1;fill-rule:nonzero;stroke:none"
           id="path22326" />
        <path
           d="m 3445.35,1356.93 c 0,0 -37.5,18.91 -60.53,-9.25 -23.02,-28.15 -55.94,-94.61 -56.96,-139.53 -1.02,-44.91 35.54,-41.88 57.28,-31.25 21.73,10.63 85.22,102.73 89.06,120.78 3.85,18.04 -4.53,42.44 -10.64,47.21 -6.11,4.78 -18.21,12.04 -18.21,12.04"
           style="fill:#ee1696;fill-opacity:1;fill-rule:nonzero;stroke:none"
           id="path22328" />
        <path
           d="m 3453.53,1365.97 1.73,-38.85 c 0.37,-8.25 -3.79,-16.12 -10.97,-20.21 -6.56,-3.71 -16.07,-6.56 -28.93,-4.49 -28.24,4.53 -30.76,12.61 -32.78,51.45 -2.02,38.83 70.95,12.1 70.95,12.1"
           style="fill:#d9effb;fill-opacity:1;fill-rule:nonzero;stroke:none"
           id="path22330" />
        <path
           d="m 3308.1,1431.63 c 0,0 -37.5,18.91 -60.53,-9.25 -23.03,-28.15 -55.94,-94.63 -56.96,-139.54 -1.02,-44.91 35.54,-41.87 57.27,-31.25 21.74,10.64 85.23,102.73 89.07,120.77 3.84,18.05 -4.54,42.45 -10.64,47.23 -6.11,4.76 -18.21,12.04 -18.21,12.04"
           style="fill:#ee1696;fill-opacity:1;fill-rule:nonzero;stroke:none"
           id="path22332" />
        <path
           d="m 3316.28,1440.66 1.73,-38.84 c 0.37,-8.27 -3.78,-16.14 -10.98,-20.21 -6.54,-3.72 -16.06,-6.56 -28.92,-4.5 -28.25,4.54 -30.77,12.61 -32.79,51.44 -2.01,38.84 70.96,12.11 70.96,12.11"
           style="fill:#d9effb;fill-opacity:1;fill-rule:nonzero;stroke:none"
           id="path22334" />
        <path
           d="m 3650.85,2153.86 c -11.09,180.57 -195.56,-26.57 -195.56,-26.57 l -126.24,-123.74 -113.68,-124.88 c -22.2,-24.38 -32.53,-57.32 -28.23,-90.02 l 45.99,-350.17 c 2.26,-17.29 17.06,-30.04 34.5,-29.91 4.93,0.04 10.57,0.48 17.04,1.5 41.02,6.38 38,45.39 38,45.39 l -8.41,327.51 238.74,143.91 c 0,0 108.94,46.41 97.85,226.98"
           style="fill:#263c7a;fill-opacity:1;fill-rule:nonzero;stroke:none"
           id="path22336" />
        <path
           d="M 3788.11,2085.06 C 3777,2265.63 3592.55,2058.5 3592.55,2058.5 l -126.24,-123.74 -113.68,-124.89 c -22.21,-24.38 -32.54,-57.32 -28.25,-90.02 l 45.99,-350.16 c 2.28,-17.3 17.07,-30.05 34.51,-29.92 4.92,0.04 10.58,0.49 17.04,1.5 41.02,6.39 37.99,45.39 37.99,45.39 l -8.16,318.1 238.5,153.33 c 0,0 108.95,46.4 97.86,226.97"
           style="fill:#263c7a;fill-opacity:1;fill-rule:nonzero;stroke:none"
           id="path22338" />
        <path
           d="m 3678.97,2664.7 c 139.85,-57.98 137.05,-140.65 137.05,-140.65 0,0 -27.4,-303.05 -18.04,-505.45 3.9,-84.61 -449.53,-91.06 -381.92,134.66 79.74,266.15 49.86,481.61 87.18,514.11 37.33,32.5 139.56,12.32 175.73,-2.67"
           style="fill:#ee1696;fill-opacity:1;fill-rule:nonzero;stroke:none"
           id="path22340" />
        <path
           d="m 3723.96,2591.4 c -7.31,-28.4 -44.51,-43.36 -83.08,-33.42 -38.58,9.93 -63.92,41 -56.6,69.4 7.31,28.39 44.51,43.35 83.08,33.42 38.58,-9.94 63.92,-41.02 56.6,-69.4"
           style="fill:#fab6a9;fill-opacity:1;fill-rule:nonzero;stroke:none"
           id="path22342" />
        <path
           d="m 3667.98,2557.36 -25.73,-27.94 c -3.34,-3.62 -4.95,-8.52 -4.38,-13.42 l 17.7,-152.96 c 0.48,-4.29 -0.7,-8.6 -3.32,-12.03 l -55.37,-72.42 c -2.45,-3.21 -7.5,-2.33 -8.73,1.53 l -30.13,94.85 c -1.14,3.59 -1.03,7.46 0.31,10.99 l 53.03,138.91 c 1.15,3.05 1.41,6.36 0.74,9.54 l -7.75,36.83 63.63,-13.88"
           style="fill:#ffffff;fill-opacity:1;fill-rule:nonzero;stroke:none"
           id="path22344" />
        <path
           d="m 3643.43,2657.2 c -25.97,0 -47.68,-12.08 -52.68,-31.49 -3,-11.62 0.49,-24.31 9.8,-35.73 9.8,-12.01 24.71,-21.07 42,-25.53 17.29,-4.46 34.73,-3.74 49.1,2.06 13.67,5.5 22.84,14.92 25.84,26.56 6.39,24.77 -16.86,52.25 -51.8,61.26 -7.56,1.95 -15.07,2.87 -22.26,2.87 z m 21.32,-108.99 c -8.38,0 -17,1.1 -25.54,3.29 -20.03,5.16 -37.43,15.82 -49.02,30.03 -12.06,14.8 -16.47,31.67 -12.39,47.52 8.23,31.91 49.11,49.06 91.23,38.22 42.08,-10.84 69.63,-45.63 61.41,-77.54 -4.08,-15.84 -16.08,-28.5 -33.8,-35.62 -9.76,-3.93 -20.61,-5.9 -31.89,-5.9"
           style="fill:#ffffff;fill-opacity:1;fill-rule:nonzero;stroke:none"
           id="path22346" />
        <path
           d="m 3622.91,2671 c 0,0 1.2,-5.61 -1.21,-49.93 -0.76,-13.92 48.02,-26.94 60.62,-14.33 12.61,12.61 7.57,25.72 10.6,73.13 3.02,47.41 -70.01,-8.87 -70.01,-8.87"
           style="fill:#fab6a9;fill-opacity:1;fill-rule:nonzero;stroke:none"
           id="path22348" />
        <path
           d="m 3692.92,2679.87 c 0,0 -12.02,-43.95 -71.23,-60.82 l 0.9,39.96 70.33,20.86"
           style="fill:#eb8b8a;fill-opacity:1;fill-rule:nonzero;stroke:none"
           id="path22350" />
        <path
           d="m 3730.43,2791.57 c 14.88,-57.56 -19.72,-116.28 -77.28,-131.16 -57.54,-14.88 -116.27,19.72 -131.15,77.27 -14.88,57.55 19.71,116.27 77.27,131.16 57.56,14.88 116.28,-19.72 131.16,-77.27"
           style="fill:#fab6a9;fill-opacity:1;fill-rule:nonzero;stroke:none"
           id="path22352" />
        <path
           d="m 3650.94,2760.67 c 0,0 -59.27,-25.38 -100.31,-25.67 -41.03,-0.29 -31.99,34.07 -31.99,34.07 l 121.82,17.61 10.48,-26.01"
           style="fill:#eb8b8a;fill-opacity:1;fill-rule:nonzero;stroke:none"
           id="path22354" />
        <path
           d="m 3538.4,2753.98 c 0,0 51.63,21.92 96.92,12.79 10.65,-2.15 20.51,-7.85 27.37,-16.27 2.24,-2.76 5.06,-5.27 8.28,-6 8.03,-1.82 21.18,31.51 36.79,32.27 15.61,0.76 26.03,-10.3 13.23,-30.78 -12.81,-20.5 -8.48,-43.43 -2.58,-46.72 5.89,-3.29 78.79,47.58 23.69,156.74 -55.11,109.16 -205.51,47.33 -227.28,25.21 0,0 -22.94,-19.98 -41.58,-2.21 0,0 -20.91,-156.6 65.16,-125.03"
           style="fill:#d9effb;fill-opacity:1;fill-rule:nonzero;stroke:none"
           id="path22356" />
        <path
           d="m 3737.57,2302.65 v -81.9 c 0,-9.38 -3.95,-18.33 -10.89,-24.65 l -168.22,-153.37 19.12,-29.22 231.76,151.96 c 10.37,7.52 17.06,19.09 18.39,31.82 l 15.85,151.97 -106.01,-46.61"
           style="fill:#fab6a9;fill-opacity:1;fill-rule:nonzero;stroke:none"
           id="path22358" />
        <path
           d="m 3804.18,2565 c 0,0 51.03,-76.75 70.05,-278.78 0,0 -87.18,-28.19 -136.66,-12.19 -49.47,16.01 66.61,290.97 66.61,290.97"
           style="fill:#ee1696;fill-opacity:1;fill-rule:nonzero;stroke:none"
           id="path22360" />
        <path
           d="m 3728.25,2467.96 c 0,0 -19.98,-106.94 -21.11,-157.19 -0.31,-13.81 8.12,-26.28 21.11,-30.98 v 188.17"
           style="fill:#d1078d;fill-opacity:1;fill-rule:nonzero;stroke:none"
           id="path22362" />
        <path
           d="m 3684.61,1936.25 -37.19,4.91 -240,138.57 c -7.69,4.44 -21.14,3.88 -30.02,-1.24 l -170.08,-98.16 -22.48,2.97 v -22.38 h 0.03 c -0.14,-2.95 1.53,-5.78 5.16,-7.88 l 272,-157.04 c 7.7,-4.45 21.13,-3.89 30.02,1.25 l 185.22,106.89 c 4.99,2.88 7.49,6.6 7.34,10.09 v 22.02"
           style="fill:#5f92d3;fill-opacity:1;fill-rule:nonzero;stroke:none"
           id="path22364" />
        <path
           d="m 3504.27,2023.81 -17.05,9.84 h -187.47 l -92.43,-53.32 -22.48,2.97 v -22.38 h 0.03 c -0.14,-2.95 1.53,-5.78 5.16,-7.88 l 272,-157.04 c 4.06,-2.35 9.74,-3.29 15.49,-2.9 l 26.75,230.71"
           style="fill:#4067b1;fill-opacity:1;fill-rule:nonzero;stroke:none"
           id="path22366" />
        <path
           d="m 3194.82,1981.98 -9.98,1.32 v -22.38 h 0.03 c -0.14,-2.95 1.53,-5.78 5.16,-7.88 l 4.79,-2.77 v 31.71"
           style="fill:#5f92d3;fill-opacity:1;fill-rule:nonzero;stroke:none"
           id="path22368" />
        <path
           d="m 3464.77,1794.73 c 7.29,-2.77 17.72,-2.17 25.5,1.58 v 38.07 h -25.5 v -39.65"
           style="fill:#5f92d3;fill-opacity:1;fill-rule:nonzero;stroke:none"
           id="path22370" />
        <path
           d="m 3462.03,1818.36 -272,157.04 c -7.7,4.44 -6.73,12.21 2.16,17.33 l 185.21,106.9 c 8.88,5.14 22.33,5.69 30.02,1.25 l 271.99,-157.04 c 7.7,-4.45 6.73,-12.21 -2.14,-17.34 l -185.22,-106.89 c -8.89,-5.13 -22.32,-5.68 -30.02,-1.25"
           style="fill:#ffffff;fill-opacity:1;fill-rule:nonzero;stroke:none"
           id="path22372" />
        <path
           d="m 3457.43,1842.17 -226.17,130.57 c -6.4,3.69 -5.6,10.15 1.8,14.42 l 99.24,55.81 c 7.4,4.26 18.57,4.72 24.97,1.03 l 226.16,-130.57 c 6.4,-3.7 5.59,-10.15 -1.79,-14.42 l -99.25,-55.81 c -7.39,-4.27 -18.56,-4.72 -24.96,-1.03"
           style="fill:#d9effb;fill-opacity:1;fill-rule:nonzero;stroke:none"
           id="path22374" />
        <path
           d="m 3387.91,2104.78 -2.81,-18.76 c -2.39,-15.99 -1.98,-32.28 1.23,-48.13 l 3.35,-16.53 c 1.88,-9.33 9.27,-16.57 18.63,-18.27 7.32,-1.33 14.22,3.8 15.05,11.2 l 4.48,40.11 c 0,0 10.28,-13.44 15.23,-13.44 4.95,0 -5.55,40.17 -16.76,62.92 -11.2,22.73 -38.4,0.9 -38.4,0.9"
           style="fill:#fab6a9;fill-opacity:1;fill-rule:nonzero;stroke:none"
           id="path22376" />
        <path
           d="m 3480.12,2403.07 -29.19,-57.77 c -6.9,-13.66 -10.97,-28.57 -11.95,-43.85 l -12.67,-197.57 -38.4,0.9 -17.42,221.89 c -0.54,6.85 -0.21,13.75 0.99,20.52 l 19.91,112.51 88.73,-56.63"
           style="fill:#fab6a9;fill-opacity:1;fill-rule:nonzero;stroke:none"
           id="path22378" />
        <path
           d="m 3452.81,1803.28 -22.8,29.78 -239.83,138.85 c -7.7,4.46 -13.92,16.38 -13.91,26.64 l 0.21,196.36 -13.79,18 12.95,7.51 0.02,-0.02 c 2.48,1.6 5.78,1.56 9.41,-0.55 l 271.81,-157.36 c 7.68,-4.45 13.91,-16.38 13.89,-26.64 L 3470.55,1822 c -0.01,-5.77 -2,-9.78 -5.09,-11.4 l -12.65,-7.32"
           style="fill:#263c7a;fill-opacity:1;fill-rule:nonzero;stroke:none"
           id="path22380" />
        <path
           d="m 3286.96,1915.88 -17.04,9.86 -93.54,162.47 0.1,106.7 -13.79,18 12.95,7.51 0.02,-0.02 c 2.48,1.6 5.78,1.56 9.41,-0.55 l 271.81,-157.36 c 4.06,-2.35 7.7,-6.81 10.24,-11.98 l -180.16,-134.63"
           style="fill:#4067b1;fill-opacity:1;fill-rule:nonzero;stroke:none"
           id="path22382" />
        <path
           d="m 3168.81,2204.92 -6.12,7.99 12.95,7.51 0.02,-0.02 c 2.48,1.6 5.78,1.56 9.41,-0.55 l 4.78,-2.76 -21.04,-12.17"
           style="fill:#5f92d3;fill-opacity:1;fill-rule:nonzero;stroke:none"
           id="path22384" />
        <path
           d="m 3459.35,2060.75 c 6.03,-4.94 10.71,-14.28 11.34,-22.9 l -26.55,-15.33 -12.73,22.1 27.94,16.13"
           style="fill:#2e4b8d;fill-opacity:1;fill-rule:nonzero;stroke:none"
           id="path22386" />
        <path
           d="m 3443.93,2054.99 -271.81,157.37 c -7.69,4.46 -13.94,-0.25 -13.95,-10.51 L 3157.95,1988 c -0.02,-10.26 6.21,-22.19 13.9,-26.63 l 271.8,-157.38 c 7.7,-4.45 13.94,0.26 13.95,10.52 l 0.23,213.85 c 0.01,10.25 -6.21,22.18 -13.9,26.63"
           style="fill:#5f92d3;fill-opacity:1;fill-rule:nonzero;stroke:none"
           id="path22388" />
        <path
           d="m 3577.58,2013.51 -4.36,-9.03 c -5.02,-10.39 -12.9,-19.13 -22.72,-25.18 l -26.99,-16.64 c -8.4,-5.19 -19.05,-5.61 -27.57,-0.65 l -0.92,0.56 c -8.58,5.38 -9.36,17.69 -2.3,24.96 l 28.22,29 c 0,0 -15.85,-12.15 -20.3,-7.25 -3.25,3.58 15.38,21.07 29.68,21.65 14.3,0.56 28.14,11.8 28.14,11.8 l 19.12,-29.22"
           style="fill:#fab6a9;fill-opacity:1;fill-rule:nonzero;stroke:none"
           id="path22390" />
        <path
           d="m 3506.04,2667.79 c 0,0 -103.43,-112.54 -145.16,-215.78 0,0 35.37,-63.72 121.94,-88.72 86.58,-25 23.22,304.5 23.22,304.5"
           style="fill:#ee1696;fill-opacity:1;fill-rule:nonzero;stroke:none"
           id="path22392" />
        <path
           d="m 3463.35,2369.97 16.77,161.94 -39.5,-151.73 c 7.04,-3.67 14.65,-7.08 22.73,-10.21"
           style="fill:#d1078d;fill-opacity:1;fill-rule:nonzero;stroke:none"
           id="path22394" />
        <path
           d="m 3583.51,2690.51 -27.8,7.63 c 0,0 13.27,-20.87 32.64,-26.19 19.37,-5.32 22.38,11.08 22.38,11.08 l -27.22,7.48"
           style="fill:#ffffff;fill-opacity:1;fill-rule:nonzero;stroke:none"
           id="path22396" />
        <path
           d="m 3731.95,2734.99 c 0,-8.55 -6.93,-15.48 -15.48,-15.48 -8.54,0 -15.47,6.93 -15.47,15.48 0,8.55 6.93,15.48 15.47,15.48 8.55,0 15.48,-6.93 15.48,-15.48"
           style="fill:#ffffff;fill-opacity:1;fill-rule:nonzero;stroke:none"
           id="path22398" />
        <path
           d="m 2057.69,1655.5 c -57.99,0 -115.99,12.77 -160.24,38.32 -88.5,51.09 -88.5,133.93 0,185.04 44.24,25.54 102.23,38.31 160.22,38.31 58,0 116,-12.77 160.26,-38.32 88.5,-51.1 88.51,-133.94 0,-185.03 -44.24,-25.55 -102.24,-38.32 -160.24,-38.32"
           style="fill:#1a1a1a;fill-opacity:0.395492;fill-rule:nonzero;stroke:none;filter:url(#filter28915)"
           id="path22400" />
        <path
           d="m 2315.51,1898.23 v 72.39 h -13.67 c -12.27,21.13 -32.7,41.02 -61.84,57.85 -100.69,58.13 -263.94,58.13 -364.61,0 -29.15,-16.83 -49.58,-36.72 -61.85,-57.85 h -13.65 v -72 h 0.02 c -0.18,-38.22 24.96,-76.48 75.48,-105.64 100.68,-58.14 263.93,-58.14 364.61,-0.01 50.34,29.07 75.51,67.17 75.51,105.26"
           style="fill:#ee1696;fill-opacity:1;fill-rule:nonzero;stroke:none"
           id="path22402" />
        <path
           d="m 2240,1865.37 c -100.68,-58.13 -263.93,-58.13 -364.61,0 -100.69,58.13 -100.69,152.37 0,210.51 100.67,58.12 263.92,58.12 364.61,-0.01 100.68,-58.13 100.68,-152.37 0,-210.5"
           style="fill:#ee1696;fill-opacity:1;fill-rule:nonzero;stroke:none"
           id="path22404" />
        <path
           d="m 2240,1865.37 c -100.68,-58.13 -263.93,-58.13 -364.61,0 -48.26,27.85 -73.12,64.01 -75.13,100.52 -2.17,-39.66 22.7,-79.73 75.13,-109.99 100.68,-58.14 263.93,-58.14 364.61,0 52.43,30.26 77.29,70.32 75.12,109.99 -2,-36.51 -26.87,-72.67 -75.12,-100.52"
           style="fill:#ffffff;fill-opacity:1;fill-rule:nonzero;stroke:none"
           id="path22406" />
        <path
           d="m 1933.43,1921.34 c -4.34,2.51 -6.81,5.92 -6.8,9.5 l 0.26,96.98 c 0.02,7.39 10.42,13.38 23.24,13.37 12.82,0 23.17,-6.01 23.17,-13.42 l -0.22,-80.42 233.39,28.59 c 12.55,1.53 24.86,-3.1 27.52,-10.34 2.66,-7.23 -5.35,-14.34 -17.88,-15.87 l -261.46,-32.03 c -6.86,-0.84 -14,0.16 -19.44,2.71 l -1.78,0.93"
           style="fill:#ffffff;fill-opacity:1;fill-rule:nonzero;stroke:none"
           id="path22408" />
        <path
           d="m 3740.25,3412.52 -384.83,222.11 c -7.62,4.39 -15.25,4.56 -21.86,1.6 l 0.08,0.24 -45.87,-21.56 c 0,0 17.23,-6.02 27.34,-9.58 l -55.54,-280.15 c -4.51,-22.8 5.68,-49.28 22.78,-59.15 l 367.83,-212.29 -6.52,-32.88 46.33,21.72 -0.2,0.07 c 7.86,3.88 14.11,12.41 16.54,24.67 l 56.71,286.06 c 4.51,22.79 -5.69,49.27 -22.79,59.14"
           style="fill:#d1078d;fill-opacity:1;fill-rule:nonzero;stroke:none"
           id="path22410" />
        <path
           d="m 3620.48,3022.02 -384.83,222.11 c -17.1,9.86 -27.3,36.35 -22.78,59.14 l 56.7,286.06 c 4.52,22.79 22.04,33.27 39.15,23.39 l 384.82,-222.11 c 17.1,-9.87 27.31,-36.34 22.79,-59.14 l -56.7,-286.05 c -4.52,-22.79 -22.05,-33.27 -39.15,-23.4"
           style="fill:#ee1696;fill-opacity:1;fill-rule:nonzero;stroke:none"
           id="path22412" />
        <path
           d="m 3702.29,3394.05 -384.82,222.11 c -8.96,5.18 -18,4.64 -25.26,-0.2 5.24,0.87 10.88,0.02 16.51,-3.24 l 384.82,-222.11 c 17.1,-9.87 27.31,-36.34 22.79,-59.14 l -56.7,-286.05 c -2.15,-10.85 -7.3,-18.79 -13.89,-23.19 10.69,1.78 19.6,11.33 22.64,26.63 l 56.7,286.05 c 4.52,22.79 -5.69,49.27 -22.79,59.14"
           style="fill:#ffffff;fill-opacity:1;fill-rule:nonzero;stroke:none"
           id="path22414" />
        <path
           d="m 3399.41,3342.7 c -3.28,-16.55 -17.56,-23.26 -31.9,-14.99 -14.35,8.29 -23.31,28.41 -20.03,44.97 3.28,16.55 17.57,23.26 31.9,14.99 14.35,-8.29 23.32,-28.41 20.03,-44.97"
           style="fill:#ffffff;fill-opacity:1;fill-rule:nonzero;stroke:none"
           id="path22416" />
        <path
           d="m 3478.08,3297.3 c -3.29,-16.55 -17.57,-23.26 -31.92,-14.99 -14.33,8.29 -23.3,28.41 -20.02,44.96 3.28,16.56 17.57,23.27 31.91,15 14.34,-8.29 23.31,-28.41 20.03,-44.97"
           style="fill:#ffffff;fill-opacity:1;fill-rule:nonzero;stroke:none"
           id="path22418" />
        <path
           d="m 3556.73,3251.9 c -3.28,-16.55 -17.56,-23.26 -31.91,-14.99 -14.33,8.28 -23.3,28.41 -20.02,44.96 3.29,16.56 17.56,23.27 31.91,14.99 14.33,-8.28 23.3,-28.4 20.02,-44.96"
           style="fill:#ffffff;fill-opacity:1;fill-rule:nonzero;stroke:none"
           id="path22420" />
        <path
           d="m 5241.03,3884.63 -384.84,222.11 c -7.62,4.39 -15.25,4.56 -21.85,1.59 l 0.08,0.25 -45.88,-21.56 c 0,0 17.23,-6.02 27.34,-9.58 l -55.54,-280.15 c -4.51,-22.81 5.69,-49.28 22.79,-59.16 l 367.83,-212.29 -6.53,-32.87 46.33,21.71 -0.2,0.07 c 7.86,3.88 14.11,12.42 16.54,24.67 l 56.71,286.07 c 4.51,22.79 -5.68,49.26 -22.78,59.14"
           style="fill:#5f92d3;fill-opacity:1;fill-rule:nonzero;stroke:none"
           id="path22422" />
        <path
           d="m 5121.26,3494.12 -384.83,222.11 c -17.1,9.87 -27.31,36.36 -22.79,59.15 l 56.7,286.05 c 4.52,22.8 22.05,33.28 39.15,23.4 l 384.83,-222.11 c 17.1,-9.87 27.3,-36.34 22.78,-59.14 l -56.7,-286.06 c -4.52,-22.79 -22.04,-33.26 -39.14,-23.4"
           style="fill:#d9effb;fill-opacity:1;fill-rule:nonzero;stroke:none"
           id="path22424" />
        <path
           d="m 5203.07,3866.16 -384.83,222.11 c -8.96,5.18 -18,4.64 -25.26,-0.22 5.24,0.88 10.88,0.04 16.51,-3.22 l 384.83,-222.11 c 17.1,-9.87 27.3,-36.35 22.78,-59.15 l -56.7,-286.05 c -2.15,-10.84 -7.29,-18.78 -13.89,-23.18 10.69,1.77 19.6,11.33 22.64,26.62 l 56.7,286.05 c 4.52,22.79 -5.68,49.28 -22.78,59.15"
           style="fill:#ffffff;fill-opacity:1;fill-rule:nonzero;stroke:none"
           id="path22426" />
        <path
           d="m 4900.19,3814.81 c -3.29,-16.55 -17.57,-23.26 -31.91,-14.99 -14.34,8.29 -23.31,28.41 -20.03,44.97 3.28,16.55 17.57,23.26 31.91,14.98 14.34,-8.27 23.31,-28.4 20.03,-44.96"
           style="fill:#ffffff;fill-opacity:1;fill-rule:nonzero;stroke:none"
           id="path22428" />
        <path
           d="m 4978.85,3769.41 c -3.28,-16.55 -17.57,-23.26 -31.92,-14.99 -14.33,8.28 -23.3,28.41 -20.02,44.96 3.29,16.56 17.57,23.26 31.91,14.98 14.34,-8.27 23.31,-28.4 20.03,-44.95"
           style="fill:#ffffff;fill-opacity:1;fill-rule:nonzero;stroke:none"
           id="path22430" />
        <path
           d="m 5057.5,3724.01 c -3.28,-16.55 -17.56,-23.26 -31.9,-14.99 -14.34,8.28 -23.31,28.41 -20.02,44.96 3.28,16.56 17.56,23.27 31.9,14.98 14.34,-8.27 23.3,-28.39 20.02,-44.95"
           style="fill:#ffffff;fill-opacity:1;fill-rule:nonzero;stroke:none"
           id="path22432" />
      </g>
    </g>
  </g>
</svg>
