<svg aria-hidden="true" style="position: absolute; width: 0; height: 0; overflow: hidden;" version="1.1"
  xmlns="http://www.w3.org/2000/svg" xmlns:xlink="http://www.w3.org/1999/xlink">
  <defs>
    <symbol id="logoPisa" viewBox="0 0 300 100" fill="var(--color-logoPisa)">
      <path
        d="m0 0v52.785h36.131v-7.0547h-24.045v-17.511h18.884v-7.0547h-18.884v-14.11h24.045v-7.0547zm141.5 0v52.785h12.086v-23.306h12.212c1.9303 0 3.7763-0.21044 5.5388-0.63038 1.7625-0.41993 3.3156-1.0074 4.6585-1.7633 1.4268-0.83986 2.5177-1.8475 3.273-3.0233 0.83927-1.1758 1.2592-2.5196 1.2592-4.0314v-10.583c0-1.5118-0.41988-2.8555-1.2592-4.0314-0.75534-1.1758-1.8463-2.1418-3.273-2.8977-1.3428-0.83986-2.896-1.4697-4.6585-1.8897-1.7625-0.41993-3.6085-0.62965-5.5388-0.62965zm-21.401 1.3857v13.354c-0.3357-0.16796-0.71323-0.33604-1.1329-0.50401-0.41964-0.25198-0.88186-0.42002-1.3854-0.50401-0.50357-0.16796-1.049-0.25202-1.6365-0.25202-0.50356-0.08402-1.0067-0.12563-1.5102-0.12563h-6.9242c-1.9304 0-3.8187 0.20972-5.6651 0.62965-1.7625 0.41993-3.3149 1.0498-4.6578 1.8897-1.3428 0.75588-2.4345 1.7219-3.2738 2.8977-0.83928 1.1758-1.2584 2.4772-1.2584 3.905v20.787c0 1.4278 0.41914 2.7292 1.2584 3.905s1.9309 2.1835 3.2738 3.0233c1.3428 0.75589 2.8953 1.3441 4.6578 1.764 1.8464 0.41994 3.7347 0.62965 5.6651 0.62965h6.4206c2.266 0 4.3223-0.3778 6.1687-1.1337v1.1337h12.086v-51.4zm71.003 1.3857v7.0554h12.086v-7.0554zm-37.516 4.2834h9.6936c1.5946 0 2.8542 0.29446 3.7775 0.88239 0.92319 0.5879 1.3847 1.4691 1.3847 2.645v8.3147c0 1.1758-0.46149 2.0578-1.3847 2.6457-0.92321 0.58791-2.1828 0.88166-3.7775 0.88166h-9.6936zm74.025 6.173c-1.9303 0-3.8194 0.21044-5.6658 0.63038-1.7625 0.41994-3.3149 1.0498-4.6577 1.8897-1.3428 0.75588-2.4338 1.7212-3.2731 2.897-0.83927 1.1758-1.2592 2.5196-1.2592 4.0314v2.7721c0 1.5118 0.41988 2.8556 1.2592 4.0314 0.83929 1.1758 1.9302 2.1835 3.2731 3.0233 1.3428 0.75588 2.8953 1.3434 4.6577 1.7633 1.8464 0.33592 3.7355 0.50401 5.6658 0.50401h7.4272c1.5946 0 2.8535 0.2945 3.7767 0.88239 0.92321 0.58791 1.3847 1.4691 1.3847 2.645v3.9057c0 1.1758-0.46149 2.0578-1.3847 2.6457-0.92321 0.58791-2.1821 0.88166-3.7767 0.88166h-5.0359c-1.5946 0-2.8535-0.29374-3.7767-0.88166-0.92321-0.5879-1.3847-1.4699-1.3847-2.6457v-2.7713h-12.086v3.905c0 1.5118 0.41988 2.8555 1.2592 4.0314 0.83929 1.1758 1.9302 2.1835 3.2731 3.0233 1.3428 0.75588 2.8953 1.3441 4.6577 1.764 1.8464 0.41993 3.7355 0.62965 5.6658 0.62965h9.8192c2.0143 0 3.9026-0.20973 5.6651-0.62965 1.7625-0.41993 3.3149-1.0082 4.6578-1.764 1.4268-0.83986 2.5184-1.8475 3.2738-3.0233 0.83928-1.1758 1.2584-2.5196 1.2584-4.0314v-6.173c0-1.5118-0.41913-2.8555-1.2584-4.0314-0.75536-1.1758-1.847-2.1418-3.2738-2.8977-1.3428-0.83986-2.8952-1.4697-4.6578-1.8897-1.7625-0.41993-3.6508-0.62965-5.6651-0.62965h-7.4279c-1.5946 0.08398-2.8535-0.16811-3.7767-0.75602-0.92321-0.5879-1.3847-1.5115-1.3847-2.7713v-0.37765c0-1.1758 0.4615-2.0578 1.3847-2.6457 0.92319-0.58791 2.1821-0.88239 3.7767-0.88239h5.0359c1.5946 0 2.8535 0.29446 3.7767 0.88239 0.92321 0.5879 1.3847 1.4699 1.3847 2.6457v0.62965h12.086v-1.764c0-1.5118-0.41913-2.8555-1.2584-4.0314-0.75536-1.1758-1.847-2.1411-3.2738-2.897-1.3428-0.83986-2.8952-1.4697-4.6578-1.8897-1.7625-0.41993-3.6508-0.63038-5.6651-0.63038zm-167.31 0.12635c-1.9303 0-3.7763 0.20973-5.5388 0.62965-1.7625 0.41993-3.3573 1.0498-4.784 1.8897-1.3428 0.75588-2.4338 1.7219-3.2731 2.8977-0.75535 1.1758-1.1336 2.4772-1.1336 3.905v2.5201h12.086v-1.26c0-1.1758 0.46222-2.0578 1.3854-2.6457 0.9232-0.58791 2.1821-0.88165 3.7767-0.88165h3.6504c1.5107 0 2.728 0.29374 3.6512 0.88165 0.92321 0.5879 1.3847 1.4699 1.3847 2.6457v5.2914c-0.25179-0.16796-0.6293-0.33604-1.1329-0.50402-0.41964-0.25198-0.88113-0.42003-1.3847-0.50401-0.50356-0.16796-1.049-0.25202-1.6365-0.25202-0.50357-0.08398-0.96579-0.12563-1.3854-0.12563h-6.0425c-1.9303 0-3.8187 0.20973-5.6651 0.62965-1.7625 0.41994-3.3156 1.0498-4.6585 1.8897-1.3428 0.75588-2.4338 1.7219-3.2731 2.8977-0.83928 1.1758-1.2584 2.4772-1.2584 3.905v6.2994c0 1.4278 0.41914 2.7292 1.2584 3.905s1.9302 2.1835 3.2731 3.0233c1.3428 0.75589 2.896 1.3441 4.6585 1.764 1.8464 0.41994 3.7347 0.62965 5.6651 0.62965h5.4132c2.2661 0 4.3223-0.3778 6.1687-1.1337v1.1337h12.086v-30.109c0-1.4278-0.41987-2.7292-1.2592-3.905-0.75535-1.1758-1.8463-2.1418-3.2731-2.8977-1.3428-0.83986-2.8953-1.4697-4.6578-1.8897-1.7625-0.41993-3.6092-0.62965-5.5395-0.62965zm130.8 0v39.431h12.086v-39.431zm85.606 0c-1.9303 0-3.777 0.20973-5.5395 0.62965-1.7625 0.41993-3.3565 1.0498-4.7833 1.8897-1.3428 0.75588-2.4345 1.7219-3.2738 2.8977-0.75536 1.1758-1.1329 2.4772-1.1329 3.905v2.5201h12.086v-1.26c0-1.1758 0.46149-2.0578 1.3847-2.6457 0.92321-0.58791 2.1821-0.88165 3.7767-0.88165h3.6512c1.5107 0 2.728 0.29374 3.6512 0.88165 0.92321 0.5879 1.3847 1.4699 1.3847 2.6457v5.2914c-0.25179-0.16796-0.6293-0.33604-1.1329-0.50402-0.41963-0.25198-0.88186-0.42003-1.3854-0.50401-0.50356-0.16796-1.049-0.25202-1.6365-0.25202-0.50356-0.08398-0.96505-0.12563-1.3847-0.12563h-6.0424c-1.9303 0-3.8187 0.20973-5.6651 0.62965-1.7625 0.41994-3.3156 1.0498-4.6585 1.8897-1.3428 0.75588-2.4338 1.7219-3.273 2.8977-0.83928 1.1758-1.2591 2.4772-1.2591 3.905v6.2994c0 1.4278 0.41986 2.7292 1.2591 3.905s1.9302 2.1835 3.273 3.0233c1.3428 0.75589 2.896 1.3441 4.6585 1.764 1.8464 0.41994 3.7347 0.62965 5.6651 0.62965h5.4132c2.2661 0 4.3223-0.3778 6.1687-1.1337v1.1337h12.086v-30.109c0-1.4278-0.41986-2.7292-1.2592-3.905-0.75535-1.1758-1.8463-2.1418-3.273-2.8977-1.3428-0.83986-2.8953-1.4697-4.6578-1.8897-1.7625-0.41993-3.6092-0.62965-5.5395-0.62965zm-166.81 7.0547h5.0359c1.5107 0 2.7272 0.29374 3.6504 0.88165 0.92321 0.50392 1.427 1.3442 1.511 2.5201v18.393c0 1.1758-0.46149 2.0578-1.3847 2.6457-0.9232 0.58791-2.1821 0.88165-3.7767 0.88165h-5.0359c-1.5946 0-2.8535-0.29374-3.7767-0.88165-0.9232-0.5879-1.3847-1.4699-1.3847-2.6457v-18.267c0-1.1758 0.46149-2.0578 1.3847-2.6457 0.92321-0.58791 2.1821-0.88165 3.7767-0.88165zm-47.587 14.488h4.1541c1.5107 0 2.6856 0.29374 3.5249 0.88165 0.92321 0.50392 1.4271 1.3435 1.511 2.5193v3.9057c0 1.1758-0.46149 2.0578-1.3847 2.6457-0.92321 0.58791-2.1405 0.88166-3.6512 0.88166h-4.1541c-1.5946 0-2.8535-0.29374-3.7767-0.88166-0.92321-0.5879-1.3847-1.4699-1.3847-2.6457v-3.7794c0-1.1758 0.46149-2.0578 1.3847-2.6457 0.92321-0.5879 2.1821-0.88165 3.7767-0.88165zm216.41 0h4.1541c1.5107 0 2.6856 0.29374 3.5249 0.88165 0.92322 0.50392 1.4271 1.3435 1.511 2.5193v3.9057c0 1.1758-0.46148 2.0578-1.3847 2.6457-0.92321 0.58791-2.1405 0.88166-3.6512 0.88166h-4.1541c-1.5946 0-2.8542-0.29374-3.7775-0.88166-0.92321-0.5879-1.3847-1.4699-1.3847-2.6457v-3.7794c0-1.1758 0.46147-2.0578 1.3847-2.6457 0.92321-0.5879 2.1828-0.88165 3.7775-0.88165zm-191.65 32.16c-1.8718 0-3.1822 0.46823-3.9309 1.4048-0.72531 0.93654-1.0881 2.2597-1.0881 3.9689v2.0014h-2.7371v2.3533h2.7371v15.84h3.1233v-15.84h3.5102v-2.3533h-3.5102v-1.7207c0-1.1004 0.17545-1.8969 0.52642-2.3886 0.35097-0.49168 1.018-0.73691 2.0007-0.73691 0.72531 0 1.322 0.0696 1.79 0.21014l0.49118-2.4584c-1.0763-0.18727-2.0469-0.28067-2.9126-0.28067zm-87.073 0.42172v2.9499h8.2825v22.196h3.334v-22.196h8.353v-2.9499zm110.48 0v25.146h3.124v-25.146zm20.075 0v25.146h3.334v-8.71l4.0711-4.0042 8.9844 12.714h4.3523l-11.02-14.962 10.528-10.185h-4.4573l-12.459 12.503v-12.503zm87.353 0v25.146h3.1233v-25.146zm38.991 0v8.9907c-1.2167-1.639-2.8891-2.4584-5.0182-2.4584-2.5269 0-4.4459 0.87792-5.7561 2.6339s-1.9654 4.0505-1.9654 6.8835c0 2.7628 0.70257 5.0454 2.1064 6.8482 1.4272 1.7794 3.3454 2.6692 5.7554 2.6692 2.0356 0 3.6614-0.88976 4.878-2.6692v2.2482h3.124v-25.146zm-181.62 0.56133-3.1233 1.8618v4.5302h-2.2459v2.3533h2.2459v10.501c0 2.2009 0.29242 3.6759 0.87736 4.4252 0.58493 0.74924 1.7199 1.1234 3.4045 1.1234 0.8423 0 1.6263-0.0697 2.3516-0.21011l-0.45667-2.4238c-0.56153 0.0702-1.0176 0.10578-1.3685 0.10578-0.58493 0-1.018-0.21116-1.2988-0.63259-0.25735-0.42143-0.38619-1.1586-0.38619-2.2122v-10.677h3.0535v-2.3533h-3.0535zm-45.694 5.971c-1.5442 0-2.7495 1.0535-3.6152 3.1607v-2.7397h-3.1233v18.193h3.1233v-9.5182c0-2.1775 0.32795-3.8162 0.98309-4.9167 0.65512-1.1004 1.4969-1.6509 2.5264-1.6509 0.79551 0 1.5447 0.2341 2.2466 0.70239l1.0176-2.2828c-1.0529-0.63217-2.1056-0.94779-3.1585-0.94779zm30.463 0c-2.1759 0-3.8373 0.49119-4.9837 1.4746-1.1231 0.95996-1.685 2.2009-1.685 3.7228 0 1.5219 0.50343 2.6813 1.5095 3.4774 1.0295 0.77265 2.8426 1.4868 5.4397 2.1424 1.9186 0.46827 3.1468 0.87796 3.6849 1.2292 0.53814 0.3278 0.80762 0.84269 0.80762 1.5451 0 0.93653-0.33982 1.6626-1.0183 2.1777-0.67852 0.49168-1.7313 0.73691-3.1585 0.73691-1.474 0-2.5971-0.32746-3.3692-0.98305-0.74871-0.679-1.2048-1.6273-1.3685-2.8448l-3.0535 0.49151c0.35097 1.8965 1.1587 3.3486 2.4221 4.3554 1.2635 1.0068 3.0529 1.5098 5.3692 1.5098 2.1759 0 3.9306-0.51489 5.2642-1.5451 1.357-1.0536 2.0359-2.4701 2.0359-4.2496 0-1.4282-0.45605-2.5402-1.3685-3.3363-0.91249-0.79607-2.5975-1.4873-5.0542-2.0726-2.1058-0.49169-3.4746-0.93621-4.1064-1.3342-0.60833-0.42144-0.91188-0.96005-0.91188-1.6156 0-0.79606 0.3154-1.3813 0.94712-1.756 0.63172-0.39803 1.5675-0.59732 2.8076-0.59732 1.1933 0 2.1179 0.24597 2.7731 0.73765 0.67852 0.49168 1.0879 1.2296 1.2283 2.213l3.0528-0.38646c-0.32757-1.7794-1.0642-3.067-2.2107-3.8631-1.1465-0.81947-2.8307-1.2292-5.0535-1.2292zm102.2 0c-2.7375 0-4.5743 0.98313-5.5102 2.9499v-2.5289h-3.0888v18.193h3.124v-9.9744c0-4.074 1.591-6.1113 4.773-6.1113 2.5035 0 3.7547 1.6625 3.7547 4.9872v11.099h3.124v-12.012c0-4.4018-2.0589-6.6021-6.1768-6.6021zm18.284 0c-2.6907 0-4.7962 0.87792-6.317 2.6339-1.4974 1.7326-2.2459 4.0271-2.2459 6.8835 0 2.8799 0.73665 5.1862 2.2107 6.9188 1.4974 1.7326 3.6148 2.5987 6.3523 2.5987 2.7375 0 4.8437-0.86606 6.3178-2.5987 1.4974-1.7326 2.2459-4.0389 2.2459-6.9188 0-2.8564-0.76033-5.1509-2.2812-6.8835-1.4974-1.756-3.5918-2.6339-6.2825-2.6339zm52.714 0c-2.6907 0-4.7844 0.87792-6.2818 2.6339-1.474 1.7326-2.2114 4.0619-2.2114 6.9886 0 3.0203 0.76034 5.3504 2.2812 6.9893 1.5208 1.6155 3.65 2.4231 6.3875 2.4231 4.2583 0 6.9258-1.9662 8.002-5.8997l-3.1585-0.38646c-0.95928 2.5053-2.5621 3.7573-4.8083 3.7573-1.6846 0-3.0068-0.56157-3.9661-1.6854-0.93589-1.1473-1.4623-2.669-1.5793-4.5655h13.547v-2.0374c-0.1872-2.5521-0.99489-4.5539-2.4221-6.0055-1.4272-1.475-3.3573-2.2122-5.7906-2.2122zm38.219 0c-2.4567 0-4.3868 0.86606-5.7906 2.5987-1.3804 1.7326-2.0704 4.0041-2.0704 6.8137 0 2.716 0.71369 4.9282 2.1409 6.6374 1.4272 1.7092 3.3336 2.5642 5.7201 2.5642 2.0122 0 3.6972-0.78457 5.0542-2.3533 0 2.7394-0.35092 4.6241-1.0528 5.6543-0.67851 1.0302-2.0356 1.5451-4.0711 1.5451-1.2868 0-2.27-0.25712-2.9485-0.77218-0.67853-0.4917-1.088-1.2059-1.2283-2.1424l-2.9478-0.42172c0 1.9902 0.61966 3.4652 1.8597 4.4252 1.2635 0.95995 3.0418 1.44 5.3347 1.44 3.0884 0 5.2177-0.80754 6.3875-2.4231 1.1933-1.6155 1.79-4.0974 1.79-7.4456v-15.699h-3.1233v2.1424c-1.4038-1.7092-3.0888-2.5634-5.0542-2.5634zm20.32 0c-2.6907 0-4.7844 0.87792-6.2818 2.6339-1.474 1.7326-2.2114 4.0619-2.2114 6.9886 0 3.0203 0.76034 5.3504 2.2812 6.9893 1.5208 1.6155 3.65 2.4231 6.3875 2.4231 4.2583 0 6.9258-1.9662 8.002-5.8997l-3.1585-0.38646c-0.95929 2.5053-2.5621 3.7573-4.8083 3.7573-1.6846 0-3.0061-0.56157-3.9654-1.6854-0.93589-1.1473-1.463-2.669-1.58-4.5655h13.547v-2.0374c-0.18716-2.5521-0.99413-4.5539-2.4214-6.0055-1.4272-1.475-3.3581-2.2122-5.7914-2.2122zm-257.29 0.421v11.239c0 2.5755 0.4679 4.4484 1.4038 5.6191 0.95929 1.1707 2.5621 1.756 4.8083 1.756 2.5971 0 4.3984-1.0416 5.4044-3.1254v2.7045h3.124v-18.193h-3.124v9.7283c0 2.0838-0.35093 3.6648-1.0528 4.7418-0.67852 1.077-1.9186 1.6149-3.7202 1.6149-1.4506 0-2.4331-0.44451-2.9478-1.3342-0.51474-0.91314-0.77237-2.4704-0.77237-4.6713v-10.079zm56.469 0v11.239c0 2.5755 0.4679 4.4484 1.4038 5.6191 0.95928 1.1707 2.5621 1.756 4.8083 1.756 2.5971 0 4.3984-1.0416 5.4044-3.1254v2.7045h3.1233v-18.193h-3.1233v9.7283c0 2.0838-0.35093 3.6648-1.0528 4.7418-0.67852 1.077-1.9186 1.6149-3.7202 1.6149-1.4506 0-2.4331-0.44451-2.9478-1.3342-0.51474-0.91314-0.77238-2.4704-0.77238-4.6713v-10.079zm99.496 0 5.5454 18.193h3.2635l3.6849-14.013 3.58 14.013h3.1938l5.6856-18.193h-2.9478l-4.2114 13.978-3.5799-13.978h-3.1938l-3.8604 14.435-3.9661-14.435zm-9.9322 2.1072c1.7314 0 3.0655 0.64381 4.0014 1.9316 0.95929 1.2643 1.4383 2.9505 1.4383 5.0578 0 2.1306-0.46789 3.8279-1.4038 5.0923-0.9359 1.2643-2.2811 1.8963-4.0359 1.8963-1.7548 0-3.1-0.63196-4.0359-1.8963-0.93589-1.2643-1.4038-2.9616-1.4038-5.0923 0-2.1072 0.4679-3.7934 1.4038-5.0578 0.95929-1.2877 2.3045-1.9316 4.0359-1.9316zm52.784 0c1.474 0 2.6319 0.42155 3.4742 1.2644 0.8423 0.84288 1.3339 2.1542 1.4743 3.9336h-10.178c0.11698-1.5219 0.63227-2.7628 1.5448-3.7228 0.9359-0.98338 2.1641-1.4753 3.6849-1.4753zm18.846 0c1.5442 0 2.714 0.59714 3.5095 1.7912 0.8189 1.1941 1.2283 3.0203 1.2283 5.4787 0 2.1775-0.40941 3.84-1.2283 4.9872-0.79551 1.1473-1.9297 1.7207-3.4037 1.7207-1.2635 0-2.4102-0.53786-3.4397-1.6149-1.0295-1.1004-1.544-2.8918-1.544-5.3737 0-2.3648 0.4094-4.1206 1.2283-5.2679 0.8423-1.1473 2.0587-1.7214 3.6497-1.7214zm19.584 0c1.5676 0 2.7492 0.63269 3.5447 1.897 0.81891 1.2409 1.2283 2.8678 1.2283 4.8814s-0.38646 3.6524-1.1586 4.9167c-0.77211 1.2409-1.9655 1.8618-3.5799 1.8618-1.6612 0-2.9242-0.56231-3.7899-1.6862-0.84228-1.1238-1.2636-2.856-1.2636-5.1974 0-1.9433 0.4331-3.5354 1.2988-4.7763 0.8891-1.2643 2.1292-1.897 3.7202-1.897zm20.11 0c1.474 0 2.6319 0.42155 3.4742 1.2644 0.8423 0.84288 1.3339 2.1542 1.4743 3.9336h-10.178c0.11698-1.5219 0.63227-2.7628 1.5448-3.7228 0.93589-0.98338 2.1641-1.4753 3.6849-1.4753z" />
    </symbol>
    <symbol id="volkswagen" viewBox="0 0 32 32" fill='var(--color-symbol)'>
      <path
        d="M15.943 2.909c2.578 0 5.098 0.764 7.241 2.197s3.814 3.468 4.8 5.849 1.245 5.002 0.742 7.53c-0.503 2.528-1.744 4.851-3.567 6.673s-4.145 3.064-6.673 3.567c-2.528 0.503-5.149 0.245-7.53-0.742s-4.417-2.657-5.849-4.8c-1.432-2.143-2.197-4.663-2.197-7.241 0.015-3.452 1.393-6.759 3.834-9.2s5.747-3.819 9.2-3.834v0zM15.943 4.545c-2.247 0.005-4.443 0.675-6.309 1.927s-3.32 3.028-4.178 5.105c-0.858 2.077-1.081 4.362-0.641 6.566s1.522 4.228 3.111 5.817c1.589 1.589 3.613 2.672 5.817 3.111s4.488 0.216 6.566-0.641c2.077-0.858 3.853-2.312 5.105-4.178s1.922-4.062 1.927-6.309c-0.006-3.019-1.21-5.913-3.346-8.046s-5.032-3.333-8.051-3.335v-0.016zM8.334 9.823c0.762-0.949 1.695-1.748 2.749-2.356l2.872 7.912h4.042l2.855-7.879c0.983 0.578 1.858 1.323 2.585 2.201l-4.091 10.702-1.522-3.862h-3.919l-1.497 3.862-4.074-10.579zM25.082 12.482c0.832 2.239 0.819 4.705-0.036 6.936s-2.495 4.073-4.611 5.181l4.647-12.117zM18.405 25.393c-1.668 0.428-3.42 0.414-5.081-0.041v-0.205l2.52-6.545 2.512 6.545 0.049 0.245zM11.255 24.493c-1.536-0.838-2.818-2.074-3.712-3.579s-1.367-3.221-1.369-4.971c-0.009-1.115 0.18-2.223 0.556-3.273l4.525 11.823zM15.943 6.174c0.842-0.002 1.681 0.105 2.495 0.319l-2.455 6.824-2.455-6.832c0.788-0.205 1.599-0.31 2.414-0.311v0z">
      </path>
    </symbol>
    <symbol id="netapp" viewBox="0 0 84 32" fill='var(--color-symbol)'>
      <path d="M3.636 9.455v10.923h5.078v-6.554h2.902v6.554h5.078v-10.923h-13.058z"></path>
      <path
        d="M21.34 9.455v11.059h2.392v-6.985l5.301 6.985h2.047v-11.059h-2.37v6.834l-5.15-6.834h-2.22zM51.486 9.455l-4.59 11.059h2.456l1.013-2.458h4.353l1.013 2.458h2.5l-4.568-11.059h-2.176zM41.962 9.972v2.134h-0.991v2.048h0.991v3.967c0 1.944 1.001 2.522 2.456 2.522 0.799 0 1.374-0.176 1.875-0.474v-1.919c-0.346 0.191-0.746 0.302-1.185 0.302-0.532 0-0.754-0.271-0.754-0.819v-3.579h1.961v-2.048h-1.961v-2.134h-2.392zM36.402 11.955c-2.444 0-4.159 1.979-4.159 4.376v0.022c0 2.571 1.873 4.355 4.396 4.355 1.519 0 2.644-0.602 3.426-1.574l-1.358-1.207c-0.658 0.612-1.248 0.862-2.047 0.862-1.066 0-1.81-0.557-2.047-1.638h5.84c0.018-0.219 0.022-0.459 0.022-0.647 0-2.382-1.27-4.549-4.073-4.549zM63.833 11.955c-1.238 0-2.050 0.575-2.629 1.358v-1.207h-2.37v10.908h2.37v-3.6c0.564 0.674 1.361 1.25 2.629 1.25 1.99 0 3.814-1.527 3.814-4.333v-0.043c0-2.805-1.855-4.333-3.814-4.333zM73.616 11.955c-1.237 0-2.028 0.575-2.607 1.358v-1.207h-2.392v10.908h2.392v-3.6c0.563 0.674 1.338 1.25 2.607 1.25 1.99 0 3.815-1.527 3.815-4.333v-0.043c0-2.805-1.856-4.333-3.815-4.333zM77.193 12.106v0.259h0.517v1.617h0.28v-1.617h0.539v-0.259h-1.336zM78.874 12.106v1.876h0.28v-1.552l0.56 1.552h0.172l0.561-1.552v1.552h0.28v-1.876h-0.431l-0.495 1.423-0.496-1.423h-0.431zM52.542 12.365l1.444 3.557h-2.909l1.465-3.557zM36.402 13.874c1.002 0 1.626 0.7 1.767 1.768h-3.599c0.188-1.080 0.843-1.768 1.832-1.768zM63.208 13.982c1.111 0 2.047 0.912 2.047 2.307v0.043c0 1.411-0.936 2.307-2.047 2.307s-2.026-0.912-2.026-2.307v-0.043c0-1.394 0.915-2.307 2.026-2.307zM73.013 13.982c1.113 0 2.047 0.912 2.047 2.307v0.043c0 1.411-0.935 2.307-2.047 2.307-1.11 0-2.047-0.912-2.047-2.307v-0.043c0-1.394 0.937-2.307 2.047-2.307z">
      </path>
    </symbol>
    <symbol id="nasdaq" viewBox="0 0 84 32" fill='var(--color-symbol)'>
      <path
        d="M60.483 21.617c-2.633 0-4.268-1.52-4.268-3.971 0-2.543 1.51-4.126 3.94-4.126h0.204c0.305 0 0.725 0.010 1.298 0.081v-3.070h1.717v10.808c0 0-1.631 0.277-2.891 0.277zM60.468 14.868c-1.663 0-2.472 0.895-2.472 2.735 0 1.652 0.976 2.679 2.544 2.679 0.301 0 0.647-0.020 1.117-0.060v-5.244c-0.47-0.075-0.849-0.11-1.189-0.11zM36.966 21.369l-4.638-8.069-0.002 8.069h-1.616v-10.215h2.263l4.638 7.997-0.002-7.997h1.638v10.215h-2.281zM51.739 21.526c-0.781 0-1.595-0.087-2.564-0.273l-0.105-0.020v-1.427l0.153 0.033c0.855 0.182 1.593 0.337 2.332 0.337 0.596 0 1.985-0.093 1.985-0.968 0-0.734-0.96-0.918-1.731-1.066l-0.049-0.010c-0.144-0.027-0.28-0.054-0.394-0.083-1.131-0.293-2.338-0.732-2.338-2.243 0-1.474 1.17-2.318 3.21-2.318 0.979 0 1.69 0.104 2.261 0.189l0.278 0.041v1.385l-0.148-0.027c-0.647-0.119-1.404-0.241-2.133-0.241-0.81 0-1.772 0.151-1.772 0.87 0 0.597 0.787 0.767 1.698 0.965 1.274 0.275 2.854 0.62 2.854 2.353 0 1.59-1.288 2.503-3.538 2.503zM68.194 21.526c-1.777 0-3.423-0.312-3.423-2.575 0-2.462 2.545-2.462 4.066-2.462 0.151 0 0.866 0.033 1.086 0.043-0.002-1.381-0.019-1.71-2.028-1.71-0.796 0-1.681 0.157-2.461 0.296l-0.149 0.027v-1.364l0.1-0.021c0.905-0.184 1.778-0.273 2.668-0.273 1.947 0 3.596 0.195 3.596 2.603v5.251l-0.118 0.013c-1.348 0.151-2.419 0.171-3.336 0.171h-0.001zM68.795 17.708c-1.467 0-2.376 0.215-2.376 1.286 0 1.24 1.16 1.342 2.248 1.342 0.406 0 1.136-0.052 1.36-0.068v-2.518c-0.314-0.013-1.132-0.043-1.231-0.043zM44.103 21.526c-1.78 0-3.425-0.312-3.425-2.575 0-2.462 2.545-2.462 4.066-2.462 0.152 0 0.868 0.033 1.088 0.043-0.002-1.381-0.021-1.71-2.030-1.71-0.797 0-1.681 0.157-2.462 0.296l-0.149 0.027v-1.364l0.103-0.021c0.877-0.181 1.77-0.272 2.666-0.273 1.946 0 3.596 0.195 3.596 2.603v5.251l-0.119 0.013c-1.348 0.151-2.419 0.171-3.334 0.171zM44.701 17.708c-1.467 0-2.374 0.215-2.374 1.286 0 1.24 1.158 1.342 2.246 1.342 0.408 0 1.138-0.052 1.362-0.068v-2.518c-0.317-0.013-1.134-0.043-1.233-0.043z">
      </path>
      <path
        d="M78.485 24.84v-3.351c-0.67 0.093-1.025 0.093-1.313 0.093-0.681 0-1.436-0.147-2.021-0.393-1.31-0.543-2.090-1.921-2.090-3.69 0-0.883 0.216-2.497 1.659-3.366 0.725-0.431 1.58-0.616 2.866-0.616 0.46 0 1.081 0.035 1.682 0.069l0.975 0.051v10.427l-1.759 0.776zM77.457 14.865c-1.745-0.001-2.629 0.887-2.629 2.634 0 2.249 1.319 2.722 2.428 2.722 0.27 0 0.573 0 1.245-0.085v-5.222c-0.526-0.035-0.769-0.049-1.044-0.049v0z">
      </path>
      <path
        d="M23.039 5.099l-5.679 15.555c-0.070 0.192-0.193 0.36-0.355 0.485s-0.355 0.202-0.559 0.223v0.007h6.003c0.47 0 0.872-0.298 1.022-0.715l5.681-15.556h-6.114z">
      </path>
      <path
        d="M15.957 21.133c0.348 0 0.653-0.173 0.84-0.434 0.019-0.027 0.088-0.122 0.136-0.252l2.083-5.708-1.219-3.334c-0.071-0.169-0.186-0.316-0.333-0.425s-0.321-0.178-0.503-0.198-0.367 0.009-0.535 0.084c-0.168 0.075-0.312 0.193-0.418 0.342-0.020 0.027-0.101 0.149-0.136 0.252l-2.083 5.706 1.224 3.347c0.079 0.184 0.211 0.341 0.379 0.451s0.364 0.169 0.565 0.169z">
      </path>
      <path
        d="M16.403 10.538h-6.069c-0.47 0-0.872 0.296-1.024 0.715l-5.679 15.555h6.114l5.679-15.555c0.074-0.202 0.206-0.378 0.38-0.505s0.383-0.2 0.598-0.208v-0.002z">
      </path>
    </symbol>
    <symbol id="eventbrite" viewBox="0 0 84 32" fill='var(--color-symbol)'>
      <path
        d="M48.92 7.273v5.413c0.511-0.348 1.086-0.592 1.692-0.718s1.23-0.131 1.838-0.015c0.608 0.116 1.187 0.351 1.703 0.69s0.962 0.778 1.309 1.29l0.056 0.077c0.525 0.821 0.766 1.792 0.687 2.764s-0.476 1.89-1.128 2.615c-0.741 0.854-1.773 1.402-2.896 1.536-0.55 0.095-1.114 0.078-1.657-0.050s-1.055-0.363-1.506-0.693c-0.063 0.196-0.105 0.351-0.161 0.533h-2.104v-12.944l2.167-0.498zM54.060 16.431c0.016-0.511-0.119-1.016-0.39-1.45s-0.664-0.779-1.13-0.99c-0.466-0.211-0.984-0.279-1.489-0.195s-0.973 0.315-1.347 0.665c-0.373 0.35-0.635 0.803-0.751 1.301s-0.082 1.020 0.098 1.499c0.18 0.479 0.498 0.894 0.914 1.192s0.911 0.466 1.422 0.483h0.056c0.676 0.006 1.328-0.252 1.817-0.72s0.775-1.108 0.799-1.783v0z">
      </path>
      <path
        d="M6.161 17.833c0.187 0.281 0.428 0.522 0.709 0.709s0.596 0.317 0.927 0.382c0.331 0.065 0.672 0.064 1.002-0.003s0.645-0.199 0.924-0.388c0.144-0.096 0.278-0.206 0.4-0.33 0.085-0.109 0.201-0.188 0.333-0.227s0.273-0.036 0.403 0.010c0.512 0.14 1.031 0.259 1.683 0.421-0.273 0.423-0.575 0.826-0.905 1.206-0.597 0.633-1.363 1.080-2.207 1.289s-1.731 0.17-2.554-0.111c-0.838-0.234-1.589-0.709-2.158-1.368s-0.93-1.471-1.039-2.334c-0.151-1.145 0.135-2.304 0.8-3.247s1.661-1.602 2.79-1.844c0.599-0.141 1.219-0.162 1.826-0.062s1.188 0.32 1.709 0.646c0.522 0.326 0.973 0.752 1.329 1.254s0.609 1.069 0.745 1.669c-0.003 0.040-0.003 0.080 0 0.119 0.14 0.638 0.119 0.701-0.533 0.827l-5.785 1.297c-0.137 0.003-0.273 0.031-0.4 0.084v0zM5.74 16.094l4.628-1.052c-0.268-0.431-0.665-0.768-1.133-0.964s-0.987-0.241-1.482-0.13c-0.525 0.086-1.007 0.342-1.371 0.731s-0.589 0.886-0.641 1.415v0z">
      </path>
      <path
        d="M74.038 17.833c0.347 0.536 0.883 0.922 1.501 1.081s1.275 0.078 1.836-0.225c0.205-0.093 0.389-0.226 0.54-0.393 0.28-0.407 0.61-0.365 1.009-0.245s0.919 0.217 1.402 0.337c-0.346 0.774-0.911 1.43-1.626 1.886-1.039 0.683-2.307 0.925-3.524 0.674s-2.285-0.975-2.969-2.013c-0.336-0.484-0.575-1.030-0.701-1.606-0.109-0.596-0.1-1.208 0.028-1.8s0.371-1.153 0.717-1.651c0.345-0.498 0.786-0.922 1.295-1.25s1.079-0.55 1.676-0.657h0.154c1.046-0.152 2.112 0.049 3.029 0.573s1.633 1.339 2.034 2.316c0.111 0.357 0.203 0.72 0.273 1.087 0.070 0.288-0.063 0.414-0.358 0.477-1.97 0.435-3.941 0.884-5.911 1.332l-0.407 0.077zM78.245 15.028c-0.328-0.51-0.83-0.885-1.412-1.055s-1.207-0.124-1.758 0.129c-0.891 0.393-1.557 1.311-1.402 1.956l4.572-1.031z">
      </path>
      <path
        d="M23.916 17.833c0.182 0.638 1.332 1.248 2.272 1.143 0.678-0.057 1.31-0.365 1.774-0.862 0.052-0.055 0.115-0.098 0.186-0.126s0.146-0.040 0.221-0.036c0.596 0.112 1.185 0.259 1.851 0.407-0.309 0.682-0.793 1.269-1.402 1.704-0.488 0.373-1.045 0.646-1.638 0.804s-1.212 0.197-1.821 0.116-1.196-0.282-1.727-0.59c-0.531-0.308-0.997-0.718-1.37-1.206-0.451-0.588-0.754-1.276-0.884-2.005-0.193-1.176 0.082-2.381 0.766-3.357s1.723-1.646 2.894-1.867c1.204-0.249 2.457-0.013 3.487 0.659s1.753 1.723 2.010 2.925c0.154 0.701 0.133 0.701-0.526 0.876l-5.701 1.29-0.393 0.126zM28.123 15.028c-0.305-0.47-0.758-0.826-1.287-1.011s-1.105-0.19-1.637-0.012c-0.792 0.231-1.767 1.199-1.662 2.062l4.586-1.038z">
      </path>
      <path
        d="M33.648 12.637l0.841-0.456c0.816-0.444 1.776-0.546 2.667-0.283s1.642 0.869 2.087 1.685c0.286 0.525 0.435 1.113 0.435 1.711v5.462h-1.97c-0.316 0-0.238-0.245-0.238-0.421v-3.857c-0.002-0.373-0.033-0.746-0.091-1.115-0.196-1.038-0.912-1.501-2.104-1.402-0.436 0.009-0.85 0.191-1.153 0.505s-0.468 0.735-0.46 1.171c-0.003 0.016-0.003 0.033 0 0.049v4.523c0 0.414-0.091 0.596-0.54 0.561s-1.101 0-1.69 0v-8.26c0-0.407 0.133-0.512 0.512-0.491 0.387 0.028 0.777 0.028 1.164 0 0.358-0.035 0.631 0.042 0.54 0.617z">
      </path>
      <path
        d="M12.401 12.020h2.104c0.147 0 0.344 0.245 0.407 0.421 0.645 1.648 1.276 3.303 1.907 4.958 0.063 0.168 0.133 0.33 0.245 0.589 0.105-0.217 0.175-0.358 0.238-0.498 0.652-1.676 1.304-3.352 1.935-5.042 0.126-0.33 0.273-0.477 0.645-0.456h1.984c-0.28 0.701-0.526 1.325-0.778 1.949-0.884 2.146-1.772 4.291-2.665 6.437-0.030 0.114-0.1 0.214-0.199 0.28s-0.217 0.094-0.334 0.078h-1.634c-0.087-0.010-0.171-0.040-0.245-0.088s-0.136-0.111-0.182-0.186c-1.129-2.672-2.237-5.406-3.345-8.085-0.037-0.117-0.065-0.236-0.084-0.358v0z">
      </path>
      <path
        d="M44.054 8.387v3.092c0 0.442 0.14 0.589 0.561 0.547 0.313-0.028 0.627-0.028 0.94 0 0.112 0 0.295 0.133 0.295 0.217v1.865h-1.774v6.633h-2.174c-0.070 0-0.182-0.274-0.182-0.421v-6.192h-1.052c-0.351 0-0.393-0.063-0.386-0.344v-1.409c0-0.252 0.105-0.337 0.351-0.337s0.841 0.077 0.975-0.098c0.108-0.344 0.143-0.707 0.105-1.066v-1.641c0-0.133 0.112-0.351 0.21-0.379 0.687-0.182 1.388-0.309 2.132-0.47z">
      </path>
      <path
        d="M67.404 8.928h2.356v2.749c0 0.273 0.091 0.386 0.358 0.379 0.374-0.021 0.748-0.021 1.122 0 0.068 0.011 0.132 0.040 0.186 0.083s0.096 0.099 0.123 0.163v1.823h-1.227c-0.393 0-0.589 0.091-0.582 0.561v6.030h-2.293v-6.087c0-0.351-0.098-0.491-0.456-0.463s-0.617 0-0.989 0v-1.872c0-0.084 0.147-0.175 0.238-0.238s0.112 0 0.175 0c1.010 0 1.010 0 1.010-1.017l-0.021-2.111z">
      </path>
      <path
        d="M59.284 20.792h-1.991c-0.344 0-0.259-0.259-0.266-0.456v-7.91c0-0.309 0.105-0.421 0.414-0.414h1.802c0.011 0.207 0.037 0.413 0.077 0.617l2.531-0.701v2.244c-0.323 0.049-0.659 0.084-0.989 0.154-0.224 0.016-0.442 0.076-0.642 0.177s-0.379 0.24-0.525 0.411-0.257 0.368-0.326 0.581c-0.069 0.213-0.096 0.438-0.077 0.662-0.004 0.023-0.004 0.047 0 0.070v3.983l-0.007 0.582z">
      </path>
      <path
        d="M64.964 20.736h-2.104c0-0.189 0-0.344 0-0.498v-7.713c0-0.393 0.105-0.533 0.498-0.505s0.926 0 1.402 0c0.217 0 0.323 0.070 0.323 0.309v8.274c-0.032 0.051-0.072 0.096-0.119 0.133z">
      </path>
      <path
        d="M63.94 7.469c0.36-0 0.707 0.138 0.968 0.386s0.417 0.587 0.435 0.947c0 0.372-0.148 0.729-0.411 0.992s-0.62 0.411-0.992 0.411c-0.381 0.008-0.749-0.136-1.025-0.398s-0.437-0.624-0.448-1.004c0.009-0.184 0.054-0.365 0.133-0.532s0.19-0.316 0.327-0.44c0.137-0.124 0.297-0.219 0.47-0.281s0.358-0.089 0.542-0.079v0z">
      </path>
    </symbol>
    <symbol id="box" viewBox="0 0 49 32" fill='var(--color-symbol)'>
      <path
        d="M24.911 11.538c-2.942 0-5.503 1.655-6.793 4.085-1.29-2.43-3.849-4.085-6.794-4.085-1.729 0-3.326 0.572-4.615 1.538v-6.478c-0.015-0.837-0.698-1.507-1.538-1.507s-1.516 0.67-1.535 1.507v12.757h0.002c0.068 4.189 3.481 7.563 7.687 7.563 2.944 0 5.504-1.657 6.794-4.084 1.29 2.428 3.85 4.084 6.793 4.084 4.245 0 7.689-3.442 7.689-7.691 0-4.246-3.444-7.688-7.689-7.688zM11.325 23.839c-2.547 0-4.615-2.064-4.615-4.611s2.068-4.611 4.615-4.611c2.547 0 4.611 2.064 4.611 4.61 0 2.548-2.063 4.613-4.611 4.613zM24.911 23.839c-2.548 0-4.614-2.064-4.614-4.613 0-2.546 2.066-4.61 4.614-4.61 2.547 0 4.612 2.064 4.612 4.61 0 2.548-2.065 4.613-4.612 4.613z">
      </path>
      <path
        d="M44.531 24.343l-4.179-5.127 4.185-5.136c0.529-0.678 0.377-1.624-0.353-2.126-0.731-0.507-1.757-0.377-2.323 0.28v-0.001l-3.6 4.412-3.597-4.412c-0.56-0.657-1.592-0.787-2.321-0.28-0.729 0.503-0.882 1.449-0.35 2.126h-0.002l4.177 5.137-4.176 5.127c-0.532 0.68-0.379 1.623 0.35 2.128s1.761 0.376 2.321-0.282l3.597-4.406 3.595 4.406c0.566 0.658 1.592 0.787 2.323 0.282s0.883-1.448 0.353-2.128z">
      </path>
    </symbol>
  </defs>
</svg>